<?xml version="1.0" encoding="UTF-8"?>
<svg xmlns="http://www.w3.org/2000/svg" xmlns:xlink="http://www.w3.org/1999/xlink"
     width="2420.4554" height="2420.4554" viewBox="-94.22769999999998 -95.22769999999998 2420.4554 2420.4554">
<defs>
<style type="text/css">
.l0d0 {stroke: rgb(255, 0, 0); fill: rgb(255, 0, 0); fill-opacity: 0.5;}
</style>
</defs>
<rect x="-94.22769999999998" y="-95.22769999999998" width="2420.4554" height="2420.4554" fill="#222" stroke="none"/>
<g id="POLYGONS" transform="scale(1 -1)">
<polygon class="l0d0" points="1656.0,-2023.092 1656.6380000000001,-2023.0000000000002 1657.0,-2022.939 1671.0,-2022.939 1671.939,-2021.9999999999998 1671.939,-2008.0 1672.0,-2007.638 1672.0919999999999,-2007.0000000000002 1672.207,-2005.9999999999998 1672.207,-1992.0 1673.0,-1991.2060000000001 1687.0,-1991.2060000000001 1687.413,-1991.0 1688.0,-1990.413 1688.2060000000001,-1990.0 1688.2060000000001,-1976.0 1688.207,-1975.0 1688.207,-1960.0 1689.0,-1959.2069999999999 1703.0,-1959.2069999999999 1703.413,-1959.0 1704.0,-1958.413 1704.207,-1958.0 1704.207,-1944.0 1705.0,-1943.1989999999998 1719.0,-1943.1989999999998 1719.399,-1943.0 1623.7930000000001,-1943.0 1623.7930000000001,-2007.0000000000002 1623.7939999999999,-2008.0 1623.7939999999999,-2021.9999999999998 1624.0,-2022.4129999999998 1624.587,-2023.0000000000002 1625.0,-2023.2060000000001 1639.0,-2023.2060000000001 1640.0,-2023.207 1655.0,-2023.207"/>
<polygon class="l0d0" points="16.0,-2214.413 16.587,-2215.0 17.0,-2215.207 1014.9999999999999,-2215.207 1015.4129999999999,-2215.0 1016.0,-2214.413 1016.2070000000001,-2214.0 1016.2070000000001,-2200.0 1016.9999999999999,-2199.207 1127.0,-2199.207 1128.0,-2199.119 1129.0,-2199.0099999999998 1143.0,-2199.0099999999998 1143.021,-2199.0 1144.0,-2198.0209999999997 1144.01,-2198.0 1144.01,-2184.0 1145.0,-2183.207 1159.0,-2183.207 1161.0,-2183.203 1175.0,-2183.203 1175.4070000000002,-2183.0 1176.0,-2182.407 1176.2030000000002,-2182.0 1176.2030000000002,-2168.0 1177.0,-2167.207 1192.0,-2167.207 1193.0,-2167.206 1207.0,-2167.206 1207.413,-2167.0 1208.0,-2166.413 1208.206,-2166.0 1208.206,-2152.0 1209.0,-2151.207 1224.0,-2151.207 1225.0,-2151.206 1239.0,-2151.206 1239.413,-2151.0 1240.0,-2150.413 1240.206,-2150.0 1240.206,-2136.0 1241.0,-2135.207 1303.0,-2135.207 1305.0,-2135.205 1319.0,-2135.205 1320.0,-2135.0009999999997 1320.005,-2135.0 1321.0,-2134.658 1335.0,-2134.658 1335.658,-2134.0 1335.658,-2120.0 1336.0,-2119.7129999999997 1337.0,-2119.207 1367.0,-2119.207 1368.0,-2119.199 1369.0,-2119.192 1383.0,-2119.192 1383.384,-2119.0 1384.0,-2118.384 1384.192,-2118.0 1384.192,-2104.0 1385.0,-2103.207 1415.0,-2103.207 1415.413,-2103.0 1416.0,-2102.413 1416.2069999999999,-2102.0 1416.2069999999999,-2088.0 1417.0,-2087.207 1447.0,-2087.207 1447.413,-2087.0 1448.0,-2086.413 1448.207,-2086.0 1448.207,-2072.0 1449.0,-2071.207 1463.0,-2071.207 1464.0,-2071.151 1465.0,-2071.087 1479.0,-2071.087 1479.175,-2071.0 1480.0,-2070.1749999999997 1480.087,-2070.0 1480.087,-2056.0 1481.0,-2055.206 1495.0,-2055.206 1495.411,-2055.0 1496.0,-2054.411 1496.206,-2054.0 1496.206,-2040.0 1497.0,-2039.207 1511.0,-2039.207 1511.4129999999998,-2039.0000000000002 1512.0,-2038.4129999999998 1512.207,-2037.9999999999998 1512.207,-2024.0 1513.0,-2023.207 1527.0,-2023.207 1527.413,-2023.0000000000002 1528.0,-2022.4129999999998 1528.207,-2021.9999999999998 1528.207,-2008.0 1529.0,-2007.207 1543.0,-2007.207 1543.413,-2007.0000000000002 1544.0,-2006.4129999999998 1544.207,-2005.9999999999998 1544.207,-1992.0 1545.0,-1991.161 1559.0,-1991.161 1559.321,-1991.0 1560.0,-1990.321 1560.1609999999998,-1990.0 1560.1609999999998,-1976.0 1560.2069999999999,-1974.0 1560.2069999999999,-1960.0 1561.0,-1959.195 1575.0,-1959.195 1575.389,-1959.0 1576.0,-1958.389 1576.195,-1958.0 1576.195,-1944.0 1576.201,-1943.0 15.793000000000001,-1943.0 15.793000000000001,-2021.9999999999998 1016.2070000000001,-2021.9999999999998 1016.2070000000001,-1944.0 1016.9999999999999,-1943.143 1047.0,-1943.2069999999999 1047.793,-1944.0 1047.793,-2005.9999999999998 1047.0,-2006.794 1033.0,-2006.794 1032.587,-2007.0000000000002 1032.0,-2007.587 1031.794,-2008.0 1031.794,-2021.9999999999998 1031.0,-2022.7930000000001 1016.9999999999999,-2022.7930000000001 1016.2070000000001,-2021.9999999999998 15.793000000000001,-2021.9999999999998 15.793000000000001,-2214.0"/>
<polygon class="l0d0" points="1576.201,-1943.0 1576.2069999999999,-1942.0 1576.2069999999999,-1912.0 1577.0,-1911.2050000000002 1591.0,-1911.2050000000002 1591.409,-1911.0 1592.0,-1910.409 1592.2050000000002,-1910.0 1592.2050000000002,-1896.0 1593.0,-1895.207 1607.0,-1895.207 1608.0,-1895.987 1608.01,-1896.0 1608.01,-1910.0 1609.0,-1910.99 1623.0,-1910.99 1623.0130000000001,-1911.0 1623.7930000000001,-1912.0 1623.7930000000001,-1943.0 1719.399,-1943.0 1720.0,-1942.399 1720.199,-1942.0 1720.199,-1928.0 1720.207,-1926.0 1720.207,-1912.0 1721.0,-1911.207 1735.0,-1911.207 1735.413,-1911.0 1736.0,-1910.413 1736.207,-1910.0 1736.207,-1896.0 1737.0,-1895.206 1751.0,-1895.206 1751.412,-1895.0 1752.0,-1894.412 1752.206,-1894.0 1752.206,-1880.0 1753.0,-1879.202 1767.0,-1879.202 1767.404,-1879.0 1768.0,-1878.404 1768.202,-1878.0 1768.202,-1864.0 1769.0,-1863.0919999999999 1783.0,-1863.0919999999999 1783.1840000000002,-1863.0 1784.0,-1862.184 1784.092,-1862.0 1784.092,-1848.0 1784.153,-1847.0 1784.207,-1846.0 1784.207,-1832.0 1785.0,-1831.206 1799.0,-1831.206 1799.412,-1831.0 1800.0,-1830.412 1800.206,-1830.0 1800.206,-1816.0 1801.0,-1815.152 1815.0,-1815.152 1815.304,-1815.0 1816.0,-1814.3039999999999 1816.152,-1814.0 1816.152,-1800.0 1816.661,-1799.0 1817.0,-1798.584 1831.0,-1798.584 1831.584,-1798.0 1831.584,-1784.0 1832.0,-1783.529 1832.519,-1783.0 1833.0,-1782.559 1847.0,-1782.559 1847.559,-1782.0 1847.559,-1768.0 1848.0,-1767.531 1848.571,-1767.0 1849.0,-1766.648 1863.0,-1766.648 1863.648,-1766.0 1863.648,-1752.0 1864.0,-1751.6480000000001 1864.9199999999998,-1751.0 1865.0,-1750.956 1879.0,-1750.956 1879.956,-1750.0 1879.956,-1736.0 1880.0,-1735.946 1881.0,-1735.1970000000001 1895.0,-1735.1970000000001 1895.393,-1735.0 1896.0,-1734.393 1896.197,-1734.0 1896.197,-1720.0 1897.0,-1719.2069999999999 1911.0,-1719.2069999999999 1911.413,-1719.0 1912.0,-1718.413 1912.2069999999999,-1718.0 1912.2069999999999,-1704.0 1913.0,-1703.2069999999999 1927.0,-1703.2069999999999 1928.0,-1703.206 1943.0,-1703.206 1943.413,-1703.0 1944.0,-1702.413 1944.2060000000001,-1702.0 1944.2060000000001,-1688.0 1945.0,-1687.2069999999999 1287.793,-1687.2069999999999 1287.793,-1718.0 1287.0,-1718.994 1273.0,-1718.994 1272.988,-1719.0 1272.0,-1719.988 1271.9940000000001,-1720.0 1271.9940000000001,-1734.0 1271.883,-1735.0 1271.793,-1736.0 1271.793,-1750.0 1271.0,-1750.814 1257.0,-1750.814 1256.6280000000002,-1751.0 1256.0,-1751.628 1255.814,-1752.0 1255.814,-1766.0 1255.0,-1766.7939999999999 1225.0,-1766.7939999999999 1224.207,-1766.0 1224.207,-1751.0 1224.206,-1750.0 1224.206,-1704.0 1224.203,-1703.0 1224.199,-1702.0 1224.199,-1688.0 1224.0,-1687.602 1223.605,-1687.2069999999999 1016.3800000000001,-1687.2069999999999 1016.0,-1687.587 1015.7929999999999,-1688.0 1015.7929999999999,-1814.0 1014.9999999999999,-1814.7930000000001 17.0,-1814.7930000000001 16.587,-1815.0 16.0,-1815.587 15.793000000000001,-1816.0 15.793000000000001,-1942.0 1144.2069999999999,-1942.0 1144.2069999999999,-1848.0 1145.0,-1847.193 1159.0,-1847.193 1159.3850000000002,-1847.0 1160.0,-1846.385 1160.193,-1846.0 1160.193,-1832.0 1161.0,-1831.06 1175.0,-1831.06 1175.12,-1831.0 1176.0,-1830.12 1176.0600000000002,-1830.0 1176.0600000000002,-1816.0 1177.0,-1815.207 1191.0,-1815.207 1191.7930000000001,-1816.0 1191.7930000000001,-1926.0 1191.0,-1926.798 1177.0,-1926.798 1176.596,-1927.0 1176.0,-1927.596 1175.798,-1928.0 1175.798,-1942.0 1175.0,-1942.796 1161.0,-1942.796 1160.0,-1942.795 1159.0,-1942.793 1145.0,-1942.793 1144.2069999999999,-1942.0 15.793000000000001,-1942.0 15.793000000000001,-1943.0"/>
<polygon class="l0d0" points="1960.0,-1687.113 1960.953,-1687.0 1961.0,-1686.9940000000001 1975.0,-1686.9940000000001 1975.9940000000001,-1686.0 1975.9940000000001,-1672.0 1976.0,-1671.992 1977.0,-1671.206 1991.0,-1671.206 1991.413,-1671.0 1992.0,-1670.413 1992.206,-1670.0 1992.206,-1656.0 1993.0,-1655.207 2007.0000000000002,-1655.207 2007.413,-1655.0 2008.0,-1654.413 2008.207,-1654.0 2008.207,-1640.0 2009.0,-1639.207 2023.0000000000002,-1639.207 2023.4130000000002,-1639.0 2024.0,-1638.413 2024.207,-1638.0 2024.207,-1624.0 2025.0,-1623.206 2039.0000000000002,-1623.206 2039.4130000000002,-1623.0 2040.0,-1622.413 2040.206,-1622.0 2040.206,-1608.0 2041.0,-1607.068 2055.0,-1607.068 2055.136,-1607.0 2056.0,-1606.136 2056.0679999999998,-1606.0 2056.0679999999998,-1592.0 2056.143,-1591.0 2056.2070000000003,-1590.0 2056.2070000000003,-1576.0 2057.0,-1575.207 2071.0,-1575.207 2071.413,-1575.0 2072.0,-1574.413 2072.2070000000003,-1574.0 2072.2070000000003,-1560.0 2073.0,-1559.201 2087.0,-1559.201 2087.402,-1559.0 2088.0,-1558.402 2088.201,-1558.0 2088.201,-1544.0 2088.2070000000003,-1542.0 2088.2070000000003,-1528.0 2088.146,-1527.0 2088.075,-1526.0 2088.075,-1512.0 2088.0,-1511.849 2087.151,-1511.0 2087.0,-1510.9250000000002 2073.0,-1510.9250000000002 2072.0,-1510.8539999999998 2071.0,-1510.7930000000001 2041.0,-1510.7930000000001 2039.0000000000002,-1510.807 2025.0,-1510.807 2024.614,-1511.0 2024.0,-1511.614 2023.8070000000002,-1512.0 2023.8070000000002,-1526.0 2023.0000000000002,-1526.7930000000001 2009.0,-1526.7930000000001 2007.0000000000002,-1526.7949999999998 1993.0,-1526.7949999999998 1991.0,-1526.817 1977.0,-1526.817 1976.0,-1526.805 1975.0,-1526.794 1961.0,-1526.794 1960.207,-1526.0 1960.207,-1512.0 1960.206,-1511.0 1960.206,-1495.0 1960.207,-1494.0 1960.207,-1480.0 1961.0,-1479.2069999999999 1991.0,-1479.2069999999999 1993.0,-1479.179 2007.0000000000002,-1479.179 2007.358,-1479.0 2008.0,-1478.3580000000002 2008.179,-1478.0 2008.179,-1464.0 2009.0,-1463.2069999999999 2055.0,-1463.2069999999999 2055.413,-1463.0 2056.0,-1462.413 2056.2070000000003,-1462.0 2056.2070000000003,-1448.0 1399.7930000000001,-1448.0 1399.7930000000001,-1494.0 1399.0,-1494.797 1385.0,-1494.797 1384.595,-1495.0 1384.0,-1495.595 1383.797,-1496.0 1383.797,-1510.0 1383.7930000000001,-1512.0 1383.7930000000001,-1542.0 1383.0,-1542.794 1369.0,-1542.794 1368.587,-1543.0 1368.0,-1543.587 1367.7939999999999,-1544.0 1367.7939999999999,-1559.0 1367.7930000000001,-1560.0 1367.7930000000001,-1574.0 1367.0,-1574.8200000000002 1353.0,-1574.8200000000002 1352.641,-1575.0 1352.0,-1575.641 1351.82,-1576.0 1351.82,-1590.0 1351.1219999999998,-1591.0 1351.0,-1591.106 1337.0,-1591.106 1336.106,-1592.0 1336.106,-1606.0 1336.0,-1606.118 1335.0,-1606.793 1321.0,-1606.793 1320.0,-1606.795 1319.0,-1606.7959999999998 1305.0,-1606.7959999999998 1304.5919999999999,-1607.0 1304.0,-1607.5919999999999 1303.796,-1608.0 1303.796,-1622.0 1303.0,-1622.793 1289.0,-1622.793 1288.587,-1623.0 1288.0,-1623.587 1287.793,-1624.0 1287.793,-1687.2069999999999 1959.0,-1687.2069999999999"/>
<polygon class="l0d0" points="1223.398,-1687.0 1223.0,-1686.801 1209.0,-1686.801 1208.207,-1686.0 1208.207,-1672.0 1208.206,-1671.0 1208.206,-1656.0 1208.0,-1655.587 1207.413,-1655.0 1207.0,-1654.794 1192.0,-1654.794 1191.0,-1654.793 1145.0,-1654.793 1143.0,-1654.795 1129.0,-1654.795 1128.5890000000002,-1655.0 1128.0,-1655.589 1127.795,-1656.0 1127.795,-1670.0 1127.0,-1670.793 1113.0,-1670.793 1112.0,-1670.796 1111.0,-1670.798 1097.0,-1670.798 1096.595,-1671.0 1096.0,-1671.595 1095.798,-1672.0 1095.798,-1686.0 1095.0,-1686.793 1016.9999999999999,-1686.793 1016.5869999999999,-1687.0 1016.3800000000001,-1687.2069999999999 1223.605,-1687.2069999999999"/>
<polygon class="l0d0" points="2057.0,-1447.2069999999999 2071.0,-1447.2069999999999 2071.413,-1447.0 2072.0,-1446.413 2072.2070000000003,-1446.0 2072.2070000000003,-1432.0 2073.0,-1431.2069999999999 2087.0,-1431.2069999999999 2087.413,-1431.0 2088.0,-1430.413 2088.2070000000003,-1430.0 2088.2070000000003,-1416.0 2089.0,-1415.19 2103.0,-1415.19 2103.3810000000003,-1415.0 2104.0,-1414.381 2104.19,-1414.0 2104.19,-1400.0 2104.199,-1399.0 2104.2070000000003,-1398.0 2104.2070000000003,-1384.0 2105.0,-1383.2040000000002 2119.0,-1383.2040000000002 2119.409,-1383.0 2120.0,-1382.409 2120.204,-1382.0 2120.204,-1368.0 2120.205,-1367.0 2120.2070000000003,-1366.0 2120.2070000000003,-1352.0 2121.0,-1351.144 2135.0,-1351.144 2135.288,-1351.0 2136.0,-1350.288 2136.144,-1350.0 2136.144,-1336.0 2136.177,-1335.0 2136.2070000000003,-1334.0 2136.2070000000003,-1240.0 2137.0,-1239.135 2151.0,-1239.135 2151.2709999999997,-1239.0 2152.0,-1238.271 1751.522,-1238.271 1751.0,-1238.7930000000001 1737.0,-1238.7930000000001 1736.0,-1238.9660000000001 1735.844,-1239.0 1735.0,-1239.2350000000001 1721.0,-1239.2350000000001 1720.235,-1240.0 1720.235,-1254.0 1720.0,-1254.222 1719.0,-1254.7930000000001 1689.0,-1254.7930000000001 1688.0729999999999,-1254.0 1688.0729999999999,-1240.0 1688.0,-1239.854 1687.146,-1239.0 1687.0,-1238.927 1673.0,-1238.927 1672.0,-1238.855 1671.0,-1238.7939999999999 1657.0,-1238.7939999999999 1656.0,-1238.7930000000001 1641.0,-1238.7930000000001 1640.4209999999998,-1238.271 1528.1299999999999,-1238.271 1528.0,-1238.78 1527.955,-1239.0 1527.794,-1240.0 1527.794,-1254.0 1527.824,-1255.0 1527.857,-1256.0 1527.857,-1270.0 1528.0,-1270.286 1528.714,-1271.0 1529.0,-1271.1429999999998 1543.0,-1271.1429999999998 1544.0,-1271.715 1544.311,-1272.0 1544.311,-1286.0 1545.0,-1286.689 1559.0,-1286.689 1559.954,-1287.0 1560.0,-1287.011 1561.0,-1287.2069999999999 1607.0,-1287.2069999999999 1607.796,-1288.0 1607.796,-1302.0 1608.0,-1302.4089999999999 1608.5910000000001,-1303.0 1609.0,-1303.204 1623.0,-1303.204 1623.795,-1304.0 1623.795,-1318.0 1623.911,-1319.0 1624.0,-1319.606 1624.068,-1320.0 1624.068,-1334.0 1624.0,-1334.4 1623.913,-1335.0 1623.798,-1336.0 1623.798,-1350.0 1623.0,-1350.806 1609.0,-1350.806 1608.611,-1351.0 1608.0,-1351.6109999999999 1607.806,-1352.0 1607.806,-1366.0 1607.0,-1366.793 1481.0,-1366.793 1479.0,-1366.797 1465.0,-1366.797 1464.0,-1366.7990000000002 1463.0,-1366.8020000000001 1449.0,-1366.8020000000001 1447.0,-1366.794 1433.0,-1366.794 1432.207,-1366.0 1432.207,-1272.0 1432.2060000000001,-1271.0 1432.2060000000001,-1256.0 1432.183,-1255.0 1432.1580000000001,-1254.0 1432.1580000000001,-1240.0 1432.0,-1239.684 1431.316,-1239.0 1431.0,-1238.842 1417.0,-1238.842 1416.4620000000002,-1238.271 1287.793,-1238.271 1287.793,-1287.0 1287.794,-1288.0 1287.794,-1302.0 1287.816,-1304.0 1287.816,-1318.0 1288.0,-1318.367 1288.6329999999998,-1319.0 1289.0,-1319.184 1303.0,-1319.184 1303.9579999999999,-1320.0 1303.9579999999999,-1334.0 1304.0,-1334.0829999999999 1304.9170000000001,-1335.0 1305.0,-1335.0420000000001 1319.0,-1335.0420000000001 1320.0,-1335.132 1321.0,-1335.207 1335.0,-1335.207 1335.7969999999998,-1336.0 1335.7969999999998,-1350.0 1336.0,-1350.407 1336.5929999999998,-1351.0 1337.0,-1351.203 1351.0,-1351.203 1353.0,-1351.207 1367.0,-1351.207 1367.7939999999999,-1352.0 1367.7939999999999,-1366.0 1368.0,-1366.413 1368.587,-1367.0 1369.0,-1367.206 1384.0,-1367.206 1385.0,-1367.207 1399.0,-1367.207 1399.7930000000001,-1368.0 1399.7930000000001,-1382.0 1399.805,-1384.0 1399.805,-1398.0 1399.835,-1399.0 1399.866,-1400.0 1399.866,-1414.0 1399.822,-1416.0 1399.822,-1430.0 1399.7939999999999,-1432.0 1399.7939999999999,-1447.0 1399.7930000000001,-1448.0 2056.2070000000003,-1448.0"/>
<polygon class="l0d0" points="1416.2069999999999,-1238.0 1416.2069999999999,-1112.0 1416.0900000000001,-1111.0 1416.0,-1110.384 1415.934,-1110.0 1415.934,-1096.0 1415.0,-1095.066 1401.0,-1095.066 1400.922,-1095.0 1400.2069999999999,-1094.0 1400.2069999999999,-1080.0 1400.2060000000001,-1079.0 1400.2060000000001,-1064.0 1400.0,-1063.588 1399.412,-1063.0 1399.0,-1062.794 1385.0,-1062.794 1384.2069999999999,-1062.0 1384.2069999999999,-1016.0 1384.0,-1015.587 1383.413,-1014.9999999999999 1383.0,-1014.793 1193.0,-1014.793 1192.587,-1014.9999999999999 1192.0,-1015.587 1191.7930000000001,-1016.0 1191.7930000000001,-1030.0 1191.916,-1031.0 1192.0,-1031.541 1192.0839999999998,-1032.0 1192.0839999999998,-1046.0 1193.0,-1046.916 1207.0,-1046.916 1207.1000000000001,-1047.0 1207.823,-1048.0 1207.823,-1062.0 1208.0,-1062.354 1208.6460000000002,-1063.0 1209.0,-1063.1770000000001 1223.0,-1063.1770000000001 1223.794,-1064.0 1223.794,-1078.0 1224.0,-1078.412 1224.588,-1079.0 1225.0,-1079.2060000000001 1239.0,-1079.2060000000001 1239.793,-1080.0 1239.793,-1094.0 1239.831,-1096.0 1239.831,-1110.0 1240.0,-1110.338 1240.662,-1111.0 1241.0,-1111.169 1255.0,-1111.169 1255.793,-1112.0 1255.793,-1126.0 1255.805,-1128.0 1255.805,-1142.0 1256.0,-1142.3890000000001 1256.6109999999999,-1143.0 1257.0,-1143.195 1271.0,-1143.195 1271.793,-1144.0 1271.793,-1190.0 1271.795,-1192.0 1271.795,-1206.0 1272.0,-1206.838 1272.052,-1207.0 1272.558,-1208.0 1272.558,-1222.0 1273.0,-1222.442 1287.0,-1222.442 1287.381,-1223.0 1287.793,-1224.0 1287.793,-1238.271 1416.4620000000002,-1238.271"/>
<polygon class="l0d0" points="1640.1209999999999,-1238.0 1640.1209999999999,-1224.0 1640.0,-1223.7579999999998 1639.2420000000002,-1223.0 1639.0,-1222.8790000000001 1625.0,-1222.8790000000001 1624.0,-1222.834 1623.0,-1222.7930000000001 1545.0,-1222.7930000000001 1544.0,-1222.955 1543.778,-1223.0 1543.0,-1223.1989999999998 1529.0,-1223.1989999999998 1528.199,-1224.0 1528.199,-1238.0 1528.1299999999999,-1238.271 1640.4209999999998,-1238.271"/>
<polygon class="l0d0" points="1720.053,-1111.0 1720.496,-1112.0 1720.496,-1126.0 1721.0,-1126.504 1735.0,-1126.504 1735.358,-1127.0 1735.793,-1128.0 1735.793,-1158.0 1735.795,-1160.0 1735.795,-1174.0 1736.0,-1174.411 1736.589,-1175.0 1737.0,-1175.2050000000002 1751.0,-1175.2050000000002 1751.793,-1176.0 1751.793,-1238.0 1751.522,-1238.271 2152.0,-1238.271 2152.1349999999998,-1238.0 2152.1349999999998,-1224.0 2152.173,-1223.0 2152.2070000000003,-1222.0 2152.2070000000003,-1176.0 2152.779,-1175.0 2153.0,-1174.768 2167.0,-1174.768 2167.768,-1174.0 2167.768,-1160.0 2168.0,-1159.159 2168.034,-1159.0 2168.206,-1158.0 2168.206,-1143.0 2168.2070000000003,-1142.0 2168.2070000000003,-1096.0 2169.0,-1095.1519999999998 2183.0,-1095.1519999999998 2183.304,-1095.0 2184.0,-1094.3039999999999 2184.152,-1094.0 2184.152,-1080.0 2184.18,-1079.0 2184.206,-1078.0 2184.206,-1063.0 2184.207,-1062.0 2184.207,-1016.0 2185.0,-1015.207 2215.0,-1015.207 2215.413,-1014.9999999999999 2216.0,-1014.413 2216.207,-1014.0 2216.207,-16.0 2216.0,-15.587 2215.413,-15.0 2215.0,-14.793000000000001 1817.0,-14.793000000000001 1816.587,-15.0 1816.0,-15.587 1815.793,-16.0 1815.793,-1014.0 1815.0,-1014.793 1721.0,-1014.793 1720.587,-1014.9999999999999 1720.0,-1015.587 1719.793,-1016.0 1719.793,-1078.0 1719.794,-1079.0 1719.794,-1094.0 1719.812,-1096.0 1719.812,-1110.0 1896.196,-1110.0 1896.196,-1096.0 1897.0,-1095.207 1927.0,-1095.207 1927.7930000000001,-1096.0 1927.7930000000001,-1110.0 1927.0,-1110.808 1913.0,-1110.808 1912.0,-1110.929 1911.527,-1111.0 1911.0,-1111.093 1897.0,-1111.093 1896.893,-1111.0 1896.196,-1110.0 1719.812,-1110.0 1720.0,-1110.8210000000001"/>
</g>
</svg>