<?xml version="1.0" encoding="UTF-8"?>
<svg xmlns="http://www.w3.org/2000/svg" xmlns:xlink="http://www.w3.org/1999/xlink"
     width="4400.455399999999" height="2224.4554000000003" viewBox="-184.22769999999994 -9.22769999999997 4400.455399999999 2224.4554000000003">
<defs>
<style type="text/css">
.l0d0 {stroke: rgb(255, 0, 0); fill: rgb(255, 0, 0); fill-opacity: 0.5;}
</style>
</defs>
<rect x="-184.22769999999994" y="-9.22769999999997" width="4400.455399999999" height="2224.4554000000003" fill="#222" stroke="none"/>
<g id="POLYGONS" transform="scale(1 -1)">
<polygon class="l0d0" points="1015.9110000000001,-1295.0 1016.0,-1295.6000000000001 1016.07,-1296.0 1016.07,-1310.0 1016.9999999999999,-1310.9299999999998 1031.0,-1310.9299999999998 1031.082,-1311.0 1031.793,-1312.0 1031.793,-1454.0 1031.0,-1454.844 1016.9999999999999,-1454.844 1016.688,-1455.0 1016.0,-1455.688 1015.8439999999999,-1456.0 1015.8439999999999,-1470.0 1015.8180000000001,-1471.0 1015.7929999999999,-1472.0 1015.7929999999999,-1870.0 1015.7940000000001,-1871.0 1015.7940000000001,-1886.0 1016.0,-1886.412 1016.5880000000001,-1887.0 1016.9999999999999,-1887.206 1031.0,-1887.206 1031.811,-1888.0 1031.811,-1902.0 1032.0,-1902.3790000000001 1032.621,-1903.0 1033.0,-1903.189 1047.0,-1903.189 1047.847,-1904.0 1047.847,-1918.0 1048.0,-1918.307 1048.6930000000002,-1919.0 1049.0,-1919.153 1063.0,-1919.153 1064.0,-1919.181 1065.0,-1919.207 1079.0,-1919.207 1079.793,-1920.0 1079.793,-1934.0 1080.0,-1934.413 1080.587,-1935.0 1081.0,-1935.2069999999999 1095.0,-1935.2069999999999 1095.7930000000001,-1936.0 1095.7930000000001,-1950.0 1095.867,-1951.0 1095.956,-1952.0 1095.956,-1966.0 1096.0,-1966.087 1096.913,-1967.0 1097.0,-1967.044 1111.0,-1967.044 1112.0,-1967.707 1112.288,-1968.0 1112.288,-1982.0 1113.0,-1982.712 1127.0,-1982.712 1127.0,-1758.795 1113.0,-1758.795 1112.2069999999999,-1758.0 1112.2069999999999,-1728.0 1112.1799999999998,-1727.0 1112.152,-1726.0 1112.152,-1712.0 1112.0,-1711.6970000000001 1111.3029999999999,-1711.0 1111.0,-1710.848 1097.0,-1710.848 1096.2069999999999,-1710.0 1096.2069999999999,-1504.0 1097.0,-1503.198 1111.0,-1503.198 1111.396,-1503.0 1112.0,-1502.396 1112.198,-1502.0 1112.198,-1488.0 1113.0,-1487.2069999999999 1127.0,-1487.2069999999999 1127.0,-750.793 1113.0,-750.793 1112.587,-751.0 1112.0,-751.587 1111.7930000000001,-752.0 1111.7930000000001,-766.0 1111.0,-766.7929999999999 1096.0,-766.7929999999999 1095.0,-766.794 1081.0,-766.794 1080.587,-767.0 1080.0,-767.587 1079.7939999999999,-768.0 1079.7939999999999,-782.0 1079.0,-782.793 1033.0,-782.793 1032.0,-782.794 1016.9999999999999,-782.794 1016.5869999999999,-783.0 1016.0,-783.587 1015.7940000000001,-784.0 1015.7940000000001,-799.0 1015.7929999999999,-800.0 1015.7929999999999,-814.0 1014.9999999999999,-814.793 17.0,-814.793 16.587,-815.0 16.0,-815.587 15.793000000000001,-816.0 15.793000000000001,-1054.0 1016.2070000000001,-1054.0 1016.2070000000001,-944.0 1016.9999999999999,-943.196 1031.0,-943.196 1031.794,-944.0 1031.794,-958.0 1031.9940000000001,-959.0 1032.0,-959.0229999999999 1032.3310000000001,-960.0 1032.3310000000001,-974.0 1033.0,-974.669 1047.0,-974.669 1047.281,-975.0 1047.793,-976.0 1047.793,-1022.0 1047.0,-1022.818 1033.0,-1022.818 1032.635,-1022.9999999999999 1032.0,-1023.6350000000001 1031.818,-1024.0 1031.818,-1038.0 1031.805,-1039.0 1031.793,-1040.0 1031.793,-1054.0 1031.0,-1054.816 1016.9999999999999,-1054.816 1016.2070000000001,-1054.0 15.793000000000001,-1054.0 15.793000000000001,-1182.0 1016.2070000000001,-1182.0 1016.2070000000001,-1088.0 1016.9999999999999,-1087.193 1031.0,-1087.193 1031.794,-1088.0 1031.794,-1102.0 1032.0,-1102.412 1032.588,-1103.0 1033.0,-1103.206 1047.0,-1103.206 1047.8110000000001,-1104.0 1047.8110000000001,-1118.0 1048.0,-1118.3780000000002 1048.6219999999998,-1119.0 1049.0,-1119.189 1063.0,-1119.189 1063.9959999999999,-1120.0 1063.9959999999999,-1134.0 1064.0,-1134.007 1064.9930000000002,-1135.0 1065.0,-1135.004 1079.0,-1135.004 1079.793,-1136.0 1079.793,-1150.0 1079.7939999999999,-1151.0 1079.7939999999999,-1166.0 1079.0,-1166.9959999999999 1065.0,-1166.9959999999999 1064.992,-1167.0 1064.0,-1167.992 1063.9959999999999,-1168.0 1063.9959999999999,-1182.0 1063.0,-1182.793 1016.9999999999999,-1182.793 1016.2070000000001,-1182.0 15.793000000000001,-1182.0 15.793000000000001,-1214.0 16.0,-1214.413 16.587,-1215.0 17.0,-1215.2069999999999 1014.9999999999999,-1215.2069999999999 1015.7929999999999,-1216.0 1015.7929999999999,-1294.0"/>
<polygon class="l0d0" points="1193.0,-895.207 1207.0,-895.207 1207.413,-895.0 1208.0,-894.413 1208.207,-894.0 1208.207,-880.0 1209.0,-879.207 1225.0,-879.207 1225.0,-734.793 1145.0,-734.793 1144.0,-734.942 1143.693,-735.0 1143.0,-735.1600000000001 1129.0,-735.1600000000001 1128.16,-736.0 1128.16,-750.0 1128.0,-750.167 1127.0,-750.793 1127.0,-974.0 1192.207,-974.0 1192.207,-896.0"/>
<polygon class="l0d0" points="1225.0,-974.7940000000001 1224.587,-975.0 1224.0,-975.587 1223.794,-976.0 1223.794,-990.0 1223.0,-990.793 1209.0,-990.793 1208.0,-990.3610000000001 1207.4959999999999,-990.0 1207.4959999999999,-976.0 1207.0,-975.504 1193.0,-975.504 1192.639,-975.0 1192.207,-974.0 1127.0,-974.0 1127.0,-1054.0 1225.0,-1054.0"/>
<polygon class="l0d0" points="1207.0,-1134.794 1193.0,-1134.794 1192.588,-1135.0 1192.0,-1135.588 1191.794,-1136.0 1191.7930000000001,-1214.0 1191.0,-1214.801 1177.0,-1214.801 1176.0230000000001,-1215.0 1175.0,-1215.352 1161.0,-1215.352 1160.0,-1215.0 1159.0,-1214.7939999999999 1145.0,-1214.7939999999999 1144.2060000000001,-1214.0 1144.2060000000001,-1200.0 1144.0,-1199.063 1143.581,-1198.0 1143.581,-1184.0 1143.0,-1183.419 1129.0,-1183.419 1128.6750000000002,-1183.0 1128.2069999999999,-1182.0 1127.0,-1182.0 1127.0,-1246.0 1208.2,-1246.0 1208.2,-1232.0 1209.0,-1231.2069999999999 1223.0,-1231.2069999999999 1225.0,-1231.203 1225.0,-1054.0 1127.0,-1054.0 1127.0,-1182.0 1128.2069999999999,-1182.0 1128.2069999999999,-1104.0 1129.0,-1103.207 1143.0,-1103.207 1143.413,-1103.0 1144.0,-1102.413 1144.2069999999999,-1102.0 1144.2069999999999,-1072.0 1145.0,-1071.207 1159.0,-1071.207 1159.413,-1071.0 1160.0,-1070.413 1160.2069999999999,-1070.0 1160.2069999999999,-1056.0 1161.0,-1055.207 1207.0,-1055.207 1207.793,-1056.0 1207.793,-1134.0"/>
<polygon class="l0d0" points="1160.587,-1519.0 1161.0,-1519.2069999999999 1175.0,-1519.2069999999999 1175.804,-1520.0 1175.804,-1534.0 1176.0,-1534.3929999999998 1176.607,-1535.0 1177.0,-1535.196 1191.0,-1535.196 1192.0,-1535.201 1193.0,-1535.2069999999999 1207.0,-1535.2069999999999 1207.793,-1536.0 1207.793,-1550.0 1208.0,-1550.413 1208.587,-1551.0 1209.0,-1551.207 1223.0,-1551.207 1223.793,-1552.0 1223.793,-1566.0 1224.0,-1566.413 1224.587,-1567.0 1225.0,-1567.207 1225.0,-1374.793 1224.207,-1374.0 1224.207,-1344.0 1224.193,-1342.0 1224.193,-1328.0 1224.0,-1327.6129999999998 1223.387,-1327.0 1223.0,-1326.807 1209.0,-1326.807 1208.207,-1326.0 1208.207,-1279.0 1208.206,-1278.0 1208.206,-1264.0 1208.202,-1262.0 1208.202,-1248.0 1208.2,-1246.0 1127.0,-1246.0 1127.0,-1487.2069999999999 1128.0,-1487.9569999999999 1128.0339999999999,-1488.0 1128.0339999999999,-1502.0 1129.0,-1502.9660000000001 1143.0,-1502.9660000000001 1143.227,-1503.0 1144.0,-1503.1019999999999 1145.0,-1503.2069999999999 1159.0,-1503.2069999999999 1159.7930000000001,-1504.0 1159.7930000000001,-1518.0 1160.0,-1518.413"/>
<polygon class="l0d0" points="1225.0,-1886.793 1224.205,-1886.0 1224.205,-1872.0 1224.0,-1871.5900000000001 1223.41,-1871.0 1223.0,-1870.795 1209.0,-1870.795 1207.0,-1870.793 1193.0,-1870.793 1192.207,-1870.0 1192.207,-1856.0 1192.0,-1855.587 1191.413,-1855.0 1191.0,-1854.793 1177.0,-1854.793 1176.2060000000001,-1854.0 1176.2060000000001,-1840.0 1176.0,-1839.587 1175.413,-1839.0 1175.0,-1838.794 1161.0,-1838.794 1160.2069999999999,-1838.0 1160.2069999999999,-1824.0 1160.0,-1823.587 1159.413,-1823.0 1159.0,-1822.7930000000001 1145.0,-1822.7930000000001 1144.2069999999999,-1822.0 1144.2069999999999,-1808.0 1144.203,-1807.0 1144.2,-1806.0 1144.2,-1792.0 1144.0,-1791.6000000000001 1143.3999999999999,-1791.0 1143.0,-1790.8 1129.0,-1790.8 1128.2069999999999,-1790.0 1128.2069999999999,-1776.0 1128.205,-1774.0 1128.205,-1760.0 1128.0,-1759.5890000000002 1127.4109999999998,-1759.0 1127.0,-1758.795 1127.0,-1982.712 1127.924,-1983.0 1128.0,-1983.018 1129.0,-1983.2069999999999 1143.0,-1983.2069999999999 1143.7930000000001,-1984.0 1143.7930000000001,-1998.0 1144.0,-1998.413 1144.587,-1999.0 1145.0,-1999.2069999999999 1159.0,-1999.2069999999999 1159.805,-2000.0 1159.805,-2013.9999999999998 1160.0,-2014.39 1160.61,-2015.0000000000002 1161.0,-2015.195 1175.0,-2015.195 1177.0,-2015.207 1225.0,-2015.207"/>
<polygon class="l0d0" points="1256.0,-879.206 1287.0,-879.206 1288.0,-879.207 1303.0,-879.207 1303.7939999999999,-880.0 1303.7939999999999,-911.0 1303.793,-912.0 1303.793,-926.0 1303.0,-926.794 1289.0,-926.794 1288.587,-927.0 1288.0,-927.5870000000001 1287.794,-928.0 1287.794,-942.0 1287.0,-942.793 1273.0,-942.793 1272.587,-943.0 1272.0,-943.587 1271.793,-944.0 1271.793,-958.0 1271.0,-958.793 1257.0,-958.793 1256.0,-958.9689999999999 1255.862,-959.0 1255.0,-959.2460000000001 1241.0,-959.2460000000001 1240.2459999999999,-960.0 1240.2459999999999,-974.0 1240.0,-974.23 1239.0,-974.7940000000001 1225.0,-974.7940000000001 1225.0,-1054.0 1368.2069999999999,-1054.0 1368.2069999999999,-880.0 1369.0,-879.205 1383.0,-879.205 1383.41,-879.0 1384.0,-878.41 1384.205,-878.0 1384.205,-734.793 1225.0,-734.793 1225.0,-879.207 1255.0,-879.207"/>
<polygon class="l0d0" points="1384.205,-1054.996 1384.0,-1054.954 1383.0,-1054.794 1369.0,-1054.794 1368.2069999999999,-1054.0 1225.0,-1054.0 1225.0,-1070.0 1384.205,-1070.0"/>
<polygon class="l0d0" points="1239.407,-1231.0 1240.0,-1230.407 1240.203,-1230.0 1240.203,-1216.0 1241.0,-1215.2069999999999 1255.0,-1215.2069999999999 1256.0,-1215.096 1256.694,-1215.0 1257.0,-1214.9509999999998 1271.0,-1214.9509999999998 1271.951,-1214.0 1271.951,-1200.0 1272.0,-1199.94 1273.0,-1199.2069999999999 1287.0,-1199.2069999999999 1288.0,-1199.206 1304.0,-1199.206 1305.0,-1199.2069999999999 1319.0,-1199.2069999999999 1319.7939999999999,-1200.0 1319.7939999999999,-1214.0 1320.0,-1214.412 1320.5880000000002,-1215.0 1321.0,-1215.206 1335.0,-1215.206 1335.7930000000001,-1216.0 1335.7930000000001,-1438.0 1335.0,-1438.7939999999999 1321.0,-1438.7939999999999 1320.5880000000002,-1439.0 1320.0,-1439.5880000000002 1319.7939999999999,-1440.0 1319.7939999999999,-1454.0 1319.0,-1454.793 1289.0,-1454.793 1288.2,-1454.0 1288.2,-1440.0 1288.0,-1439.6 1287.4,-1439.0 1287.0,-1438.8000000000002 1273.0,-1438.8000000000002 1272.206,-1438.0 1272.206,-1424.0 1272.0,-1423.588 1271.412,-1423.0 1271.0,-1422.7939999999999 1257.0,-1422.7939999999999 1256.207,-1422.0 1256.207,-1408.0 1256.193,-1406.0 1256.193,-1392.0 1256.0,-1391.613 1255.387,-1391.0 1255.0,-1390.807 1241.0,-1390.807 1240.207,-1390.0 1240.207,-1376.0 1240.0,-1375.587 1239.413,-1375.0 1239.0,-1374.793 1225.0,-1374.793 1225.0,-1518.0 1384.205,-1518.0 1384.205,-1070.0 1225.0,-1070.0 1225.0,-1231.203 1239.0,-1231.203"/>
<polygon class="l0d0" points="1320.587,-1647.0 1321.0,-1647.207 1335.0,-1647.207 1335.7930000000001,-1648.0 1335.7930000000001,-1678.0 1336.0,-1678.413 1336.587,-1679.0 1337.0,-1679.2069999999999 1351.0,-1679.2069999999999 1351.7930000000001,-1680.0 1351.7930000000001,-1710.0 1352.0,-1710.413 1352.587,-1711.0 1353.0,-1711.2069999999999 1367.0,-1711.2069999999999 1367.7930000000001,-1712.0 1367.7930000000001,-1727.0 1367.7939999999999,-1728.0 1367.7939999999999,-1742.0 1368.0,-1742.413 1368.587,-1743.0 1369.0,-1743.2060000000001 1383.0,-1743.2060000000001 1383.7930000000001,-1744.0 1383.7930000000001,-1774.0 1383.8,-1775.0 1383.806,-1776.0 1383.806,-1790.0 1384.0,-1790.3880000000001 1384.205,-1790.593 1384.205,-1518.0 1225.0,-1518.0 1225.0,-1567.207 1239.0,-1567.207 1239.793,-1568.0 1239.793,-1582.0 1240.0,-1582.413 1240.5870000000002,-1583.0 1241.0,-1583.207 1255.0,-1583.207 1255.794,-1584.0 1255.794,-1598.0 1256.0,-1598.412 1256.588,-1599.0 1257.0,-1599.206 1272.0,-1599.206 1273.0,-1599.207 1287.0,-1599.207 1287.793,-1600.0 1287.793,-1614.0 1288.0,-1614.413 1288.587,-1615.0 1289.0,-1615.207 1303.0,-1615.207 1303.7939999999999,-1616.0 1303.7939999999999,-1630.0 1304.0,-1630.4129999999998 1304.587,-1631.0 1305.0,-1631.206 1319.0,-1631.206 1319.793,-1632.0 1319.793,-1646.0 1320.0,-1646.413"/>
<polygon class="l0d0" points="1384.205,-1903.3819999999998 1384.0,-1903.587 1383.7930000000001,-1904.0 1383.7930000000001,-1918.0 1383.0,-1918.793 1305.0,-1918.793 1304.168,-1918.0 1304.168,-1904.0 1304.0,-1903.665 1303.3349999999998,-1903.0 1303.0,-1902.832 1289.0,-1902.832 1288.0,-1902.812 1287.0,-1902.793 1257.0,-1902.793 1256.206,-1902.0 1256.206,-1888.0 1256.0,-1887.588 1255.412,-1887.0 1255.0,-1886.794 1240.0,-1886.794 1239.0,-1886.793 1225.0,-1886.793 1225.0,-2015.207 1384.205,-2015.207"/>
<polygon class="l0d0" points="1431.067,-1006.9999999999999 1431.0,-1007.0559999999999 1417.0,-1007.0559999999999 1416.056,-1008.0 1416.056,-1022.0 1416.0,-1022.378 1415.92,-1022.9999999999999 1415.815,-1024.0 1415.815,-1038.0 1415.8059999999998,-1039.0 1415.798,-1040.0 1415.798,-1054.0 1415.0,-1054.845 1401.0,-1054.845 1400.0,-1054.991 1399.9470000000001,-1055.0 1399.0,-1055.197 1385.0,-1055.197 1384.2250000000001,-1055.0 1384.205,-1054.996 1384.205,-1070.0 1448.194,-1070.0 1448.194,-1056.0 1448.204,-1054.0 1448.204,-1040.0 1449.0,-1039.2060000000001 1463.0,-1039.2060000000001 1463.413,-1039.0 1464.0,-1038.413 1464.206,-1038.0 1464.206,-1024.0 1465.0,-1023.207 1479.0,-1023.207 1480.0,-1023.206 1496.0,-1023.206 1497.0,-1023.2049999999999 1511.0,-1023.2049999999999 1513.0,-1023.207 1527.0,-1023.207 1527.0,-927.378 1513.0,-927.378 1512.694,-927.0 1512.206,-926.0 1512.206,-896.0 1513.0,-895.106 1527.0,-895.106 1527.0,-718.827 1513.0,-718.827 1511.0,-718.793 1449.0,-718.793 1447.0,-718.807 1433.0,-718.807 1432.614,-719.0 1432.0,-719.614 1431.807,-720.0 1431.807,-734.0 1431.0,-734.793 1384.205,-734.793 1384.205,-864.0 1385.0,-863.207 1399.0,-863.207 1400.0,-864.0 1400.0,-878.001 1400.999,-879.0 1415.0,-879.0 1416.0,-879.115 1417.0,-879.207 1431.0,-879.207 1431.7930000000001,-880.0 1431.7930000000001,-1006.0"/>
<polygon class="l0d0" points="1527.0,-1086.793 1513.0,-1086.793 1512.587,-1087.0 1512.0,-1087.587 1511.793,-1088.0 1511.793,-1102.0 1511.0,-1102.854 1497.0,-1102.854 1496.709,-1103.0 1496.0,-1103.709 1495.854,-1104.0 1495.854,-1118.0 1495.8229999999999,-1119.0 1495.794,-1120.0 1495.794,-1134.0 1495.0,-1134.7959999999998 1481.0,-1134.7959999999998 1480.0,-1134.86 1479.0,-1134.935 1465.0,-1134.935 1464.0,-1134.8590000000002 1463.0,-1134.794 1449.0,-1134.794 1448.207,-1134.0 1448.207,-1104.0 1448.2060000000001,-1103.0 1448.2060000000001,-1088.0 1448.198,-1086.0 1448.198,-1072.0 1448.194,-1070.0 1384.205,-1070.0 1384.205,-1246.0 1527.0,-1246.0"/>
<polygon class="l0d0" points="1480.6299999999999,-1455.0 1481.0,-1455.185 1495.0,-1455.185 1495.793,-1456.0 1495.793,-1471.0 1495.794,-1472.0 1495.794,-1486.0 1495.793,-1487.0 1495.793,-1502.0 1495.0,-1502.7939999999999 1481.0,-1502.7939999999999 1480.588,-1503.0 1480.0,-1503.588 1479.794,-1504.0 1479.794,-1518.0 1479.0,-1518.7930000000001 1401.0,-1518.7930000000001 1400.2069999999999,-1518.0 1384.205,-1518.0 1384.205,-1646.0 1479.533,-1646.0 1479.533,-1632.0 1479.97,-1631.0 1480.0,-1630.9 1480.207,-1630.0 1480.207,-1616.0 1481.0,-1615.207 1495.0,-1615.207 1496.0,-1615.083 1496.532,-1615.0 1497.0,-1614.914 1511.0,-1614.914 1511.914,-1614.0 1511.914,-1600.0 1512.0,-1599.901 1513.0,-1599.207 1527.0,-1599.207 1527.0,-1246.0 1384.205,-1246.0 1384.205,-1518.0 1400.2069999999999,-1518.0 1400.2069999999999,-1440.0 1401.0,-1439.2069999999999 1415.0,-1439.2069999999999 1415.413,-1439.0 1416.0,-1438.413 1416.2069999999999,-1438.0 1416.2069999999999,-1424.0 1417.0,-1423.207 1431.0,-1423.207 1432.0,-1423.206 1433.0,-1423.204 1447.0,-1423.204 1448.0,-1423.206 1449.0,-1423.207 1463.0,-1423.207 1463.805,-1424.0 1463.805,-1438.0 1464.0,-1438.39 1464.61,-1439.0 1465.0,-1439.195 1479.0,-1439.195 1479.815,-1440.0 1479.815,-1454.0 1480.0,-1454.37"/>
<polygon class="l0d0" points="1527.0,-1774.7939999999999 1513.0,-1774.7939999999999 1512.207,-1774.0 1512.207,-1744.0 1512.206,-1743.0 1512.206,-1728.0 1512.0,-1727.588 1511.412,-1727.0 1511.0,-1726.7939999999999 1497.0,-1726.7939999999999 1496.207,-1726.0 1496.207,-1696.0 1496.0,-1695.587 1495.413,-1695.0 1495.0,-1694.793 1481.0,-1694.793 1480.207,-1694.0 1480.207,-1664.0 1480.046,-1663.0 1480.0,-1662.7749999999999 1479.8029999999999,-1662.0 1479.8029999999999,-1648.0 1479.681,-1647.0 1479.533,-1646.0 1384.205,-1646.0 1384.205,-1790.593 1384.6119999999999,-1791.0 1385.0,-1791.194 1399.0,-1791.194 1399.7930000000001,-1792.0 1399.7930000000001,-1902.0 1399.0,-1902.793 1385.0,-1902.793 1384.587,-1903.0 1384.205,-1903.3819999999998 1384.205,-2015.207 1527.0,-2015.207"/>
<polygon class="l0d0" points="1528.0,-894.212 1528.106,-894.0 1528.106,-880.0 1529.0,-879.207 1639.0,-879.207 1639.7930000000001,-880.0 1639.7930000000001,-926.0 1639.0,-926.794 1625.0,-926.794 1624.588,-927.0 1624.0,-927.588 1623.7939999999999,-928.0 1623.7939999999999,-942.0 1623.0,-942.793 1529.0,-942.793 1528.0,-942.3059999999999 1527.622,-942.0 1527.622,-928.0 1527.0,-927.378 1527.0,-1023.207 1527.793,-1024.0 1527.793,-1038.0 1527.794,-1039.0 1527.794,-1055.0 1527.793,-1056.0 1527.793,-1086.0 1527.0,-1086.793 1527.0,-1246.0 1528.207,-1246.0 1528.207,-1152.0 1529.0,-1151.201 1543.0,-1151.201 1543.403,-1151.0 1544.0,-1150.403 1544.201,-1150.0 1544.201,-1136.0 1545.0,-1135.206 1559.0,-1135.206 1559.412,-1135.0 1560.0,-1134.412 1560.206,-1134.0 1560.206,-1120.0 1561.0,-1119.207 1639.0,-1119.207 1639.7939999999999,-1120.0 1639.7939999999999,-1134.0 1640.0,-1134.412 1640.588,-1135.0 1641.0,-1135.206 1655.0,-1135.206 1655.7930000000001,-1136.0 1655.7930000000001,-1326.0 1655.158,-1327.0 1655.0,-1327.151 1641.0,-1327.151 1640.1509999999998,-1328.0 1640.1509999999998,-1342.0 1639.0,-1342.793 1593.0,-1342.793 1592.2069999999999,-1342.0 1592.2069999999999,-1328.0 1591.8609999999999,-1326.0 1591.8609999999999,-1312.0 1591.0,-1311.1390000000001 1577.0,-1311.1390000000001 1576.2069999999999,-1310.0 1576.2069999999999,-1297.0 1576.146,-1295.0 1576.076,-1280.0 1575.152,-1279.0 1561.0,-1278.924 1560.2069999999999,-1278.0 1560.2069999999999,-1264.0 1560.0,-1263.587 1559.413,-1263.0 1559.0,-1262.7930000000001 1545.0,-1262.7930000000001 1544.207,-1262.0 1544.207,-1248.0 1544.0,-1247.587 1543.413,-1247.0 1543.0,-1246.7930000000001 1529.0,-1246.7930000000001 1528.207,-1246.0 1527.0,-1246.0 1527.0,-1454.0 1671.8090000000002,-1454.0 1671.8090000000002,-734.827 1671.0,-734.793 1529.0,-734.793 1528.173,-734.0 1528.173,-720.0 1528.0,-719.653 1527.347,-719.0 1527.0,-718.827 1527.0,-895.106 1527.212,-895.0"/>
<polygon class="l0d0" points="1528.0,-1598.413 1528.207,-1598.0 1528.207,-1584.0 1529.0,-1583.207 1543.0,-1583.207 1543.413,-1583.0 1544.0,-1582.413 1544.207,-1582.0 1544.207,-1568.0 1545.0,-1567.2060000000001 1559.0,-1567.2060000000001 1559.412,-1567.0 1560.0,-1566.4119999999998 1560.206,-1566.0 1560.206,-1552.0 1561.0,-1551.207 1575.0,-1551.207 1576.0,-1551.184 1577.0,-1551.16 1591.0,-1551.16 1592.0,-1551.019 1592.11,-1551.0 1593.0,-1550.819 1607.0,-1550.819 1607.753,-1551.0 1608.0,-1551.048 1609.0,-1551.202 1623.0,-1551.202 1624.0,-1551.204 1625.0,-1551.207 1639.0,-1551.207 1639.7939999999999,-1552.0 1639.7939999999999,-1566.0 1640.0,-1566.413 1640.587,-1567.0 1641.0,-1567.2060000000001 1655.0,-1567.2060000000001 1655.7930000000001,-1568.0 1655.7930000000001,-1583.0 1655.794,-1584.0 1655.794,-1598.0 1656.0,-1598.413 1656.587,-1599.0 1657.0,-1599.206 1671.0,-1599.206 1671.7930000000001,-1600.0 1671.7930000000001,-1630.0 1671.8090000000002,-1632.0 1671.8090000000002,-1454.0 1527.0,-1454.0 1527.0,-1599.207 1527.413,-1599.0"/>
<polygon class="l0d0" points="1671.8090000000002,-1934.793 1625.0,-1934.793 1624.2060000000001,-1934.0 1624.2060000000001,-1920.0 1624.0,-1919.587 1623.413,-1919.0 1623.0,-1918.794 1608.0,-1918.794 1607.0,-1918.793 1593.0,-1918.793 1592.206,-1918.0 1592.206,-1904.0 1592.0,-1903.588 1591.412,-1903.0 1591.0,-1902.794 1577.0,-1902.794 1576.204,-1902.0 1576.204,-1888.0 1576.0,-1887.593 1575.407,-1887.0 1575.0,-1886.7959999999998 1561.0,-1886.7959999999998 1560.2069999999999,-1886.0 1560.2069999999999,-1872.0 1560.2050000000002,-1870.0 1560.2050000000002,-1856.0 1560.0,-1855.5900000000001 1559.4099999999999,-1855.0 1559.0,-1854.795 1545.0,-1854.795 1544.207,-1854.0 1544.207,-1824.0 1544.171,-1823.0 1544.133,-1822.0 1544.133,-1808.0 1544.0,-1807.734 1543.266,-1807.0 1543.0,-1806.867 1529.0,-1806.867 1528.207,-1806.0 1528.207,-1792.0 1528.206,-1791.0 1528.206,-1776.0 1528.0,-1775.587 1527.413,-1775.0 1527.0,-1774.7939999999999 1527.0,-2015.207 1671.8090000000002,-2015.207"/>
<polygon class="l0d0" points="1688.207,-960.0 1689.0,-959.207 1703.0,-959.207 1703.413,-959.0 1704.0,-958.413 1704.207,-958.0 1704.207,-944.0 1705.0,-943.206 1719.0,-943.206 1719.413,-943.0 1720.0,-942.4129999999999 1720.206,-942.0 1720.206,-928.0 1721.0,-927.082 1735.0,-927.082 1735.165,-927.0 1736.0,-926.165 1736.0819999999999,-926.0 1736.0819999999999,-912.0 1736.149,-911.0 1736.207,-910.0 1736.207,-896.0 1737.0,-895.207 1751.0,-895.207 1753.0,-895.193 1767.0,-895.193 1769.0,-895.169 1783.0,-895.169 1784.0,-895.188 1785.0,-895.2059999999999 1799.412,-895.2059999999999 1799.412,-702.6510000000001 1799.2079999999999,-703.0 1799.0,-703.214 1785.0,-703.214 1784.214,-704.0 1784.214,-718.0 1784.0,-718.808 1783.96,-719.0 1783.793,-720.0 1783.793,-734.0 1783.0,-734.794 1769.0,-734.794 1768.587,-735.0 1768.0,-735.587 1767.794,-736.0 1767.794,-750.0 1767.0,-750.793 1689.0,-750.793 1688.118,-750.0 1688.118,-736.0 1688.0,-735.764 1687.2359999999999,-735.0 1687.0,-734.8820000000001 1673.0,-734.8820000000001 1672.0,-734.835 1671.8090000000002,-734.827 1671.8090000000002,-1038.0 1688.207,-1038.0"/>
<polygon class="l0d0" points="1799.412,-974.3810000000001 1799.0,-974.7940000000001 1785.0,-974.7940000000001 1784.587,-975.0 1784.0,-975.587 1783.794,-976.0 1783.794,-991.0 1783.793,-992.0 1783.793,-1006.0 1783.0,-1006.793 1769.0,-1006.793 1768.587,-1006.9999999999999 1768.0,-1007.587 1767.793,-1008.0 1767.793,-1022.0 1767.0,-1022.796 1753.0,-1022.796 1752.5919999999999,-1022.9999999999999 1752.0,-1023.5920000000001 1751.7959999999998,-1024.0 1751.7959999999998,-1038.0 1751.0,-1038.7930000000001 1737.0,-1038.7930000000001 1736.0,-1038.794 1705.0,-1038.794 1704.0,-1038.7930000000001 1689.0,-1038.7930000000001 1688.207,-1038.0 1671.8090000000002,-1038.0 1671.8090000000002,-1135.0 1799.412,-1135.0"/>
<polygon class="l0d0" points="1799.412,-1135.0 1671.8090000000002,-1135.0 1671.8090000000002,-1342.0 1799.412,-1342.0"/>
<polygon class="l0d0" points="1783.21,-1455.0 1783.0,-1455.2169999999999 1769.0,-1455.2169999999999 1768.2169999999999,-1456.0 1768.2169999999999,-1470.0 1767.0,-1470.7930000000001 1721.0,-1470.7930000000001 1720.203,-1470.0 1720.203,-1456.0 1720.0,-1455.594 1719.406,-1455.0 1719.0,-1454.7969999999998 1705.0,-1454.7969999999998 1704.207,-1454.0 1671.8090000000002,-1454.0 1671.8090000000002,-1630.0 1784.207,-1630.0 1784.207,-1584.0 1785.0,-1583.206 1799.0,-1583.206 1799.412,-1583.0 1799.412,-1342.0 1671.8090000000002,-1342.0 1671.8090000000002,-1454.0 1704.207,-1454.0 1704.207,-1376.0 1705.0,-1375.199 1719.0,-1375.199 1719.399,-1375.0 1720.0,-1374.399 1720.199,-1374.0 1720.199,-1360.0 1721.0,-1359.207 1767.0,-1359.207 1767.795,-1360.0 1767.795,-1374.0 1768.0,-1374.4099999999999 1768.5900000000001,-1375.0 1769.0,-1375.205 1783.0,-1375.205 1783.793,-1376.0 1783.793,-1454.0"/>
<polygon class="l0d0" points="1737.0,-2015.205 1751.0,-2015.205 1751.411,-2015.0000000000002 1752.0,-2014.411 1752.205,-2013.9999999999998 1752.205,-2000.0 1752.207,-1998.0 1752.207,-1984.0 1753.0,-1983.2060000000001 1767.0,-1983.2060000000001 1767.413,-1983.0 1768.0,-1982.413 1768.206,-1982.0 1768.206,-1968.0 1769.0,-1967.2069999999999 1784.0,-1967.2069999999999 1785.0,-1967.206 1799.412,-1967.206 1799.412,-1631.0 1799.0,-1630.794 1785.0,-1630.794 1784.207,-1630.0 1671.8090000000002,-1630.0 1671.8090000000002,-1646.0 1672.0,-1646.382 1672.618,-1647.0 1673.0,-1647.191 1687.0,-1647.191 1687.7930000000001,-1648.0 1687.7930000000001,-1662.0 1687.794,-1663.0 1687.794,-1678.0 1688.0,-1678.413 1688.587,-1679.0 1689.0,-1679.206 1703.0,-1679.206 1703.793,-1680.0 1703.793,-1758.0 1703.8,-1759.0 1703.806,-1760.0 1703.806,-1774.0 1704.0,-1774.387 1704.6129999999998,-1775.0 1705.0,-1775.194 1719.0,-1775.194 1719.793,-1776.0 1719.793,-1806.0 1719.815,-1808.0 1719.815,-1822.0 1720.0,-1822.3700000000001 1720.63,-1823.0 1721.0,-1823.185 1735.0,-1823.185 1735.793,-1824.0 1735.793,-1838.0 1735.795,-1840.0 1735.795,-1854.0 1736.0,-1854.4099999999999 1736.5900000000001,-1855.0 1737.0,-1855.205 1751.0,-1855.205 1751.793,-1856.0 1751.793,-1918.0 1751.0,-1918.812 1737.0,-1918.812 1736.624,-1919.0 1736.0,-1919.624 1735.812,-1920.0 1735.812,-1934.0 1735.0,-1934.793 1671.8090000000002,-1934.793 1671.8090000000002,-2015.207 1735.0,-2015.207"/>
<polygon class="l0d0" points="1833.0,-895.189 1847.0,-895.189 1847.378,-895.0 1848.0,-894.378 1848.189,-894.0 1848.189,-880.0 1848.2069999999999,-878.0 1848.2069999999999,-848.0 1849.0,-847.175 1863.0,-847.175 1863.3509999999999,-847.0 1864.0,-846.351 1864.175,-846.0 1864.175,-832.0 1865.0,-831.207 1896.0,-831.207 1896.0,-638.793 1849.0,-638.793 1848.0,-638.794 1833.0,-638.794 1832.589,-639.0 1832.0,-639.5889999999999 1831.7939999999999,-640.0 1831.7939999999999,-654.0 1831.0,-654.793 1817.0,-654.793 1816.587,-655.0 1816.0,-655.587 1815.793,-656.0 1815.793,-670.0 1815.0,-670.794 1801.0,-670.794 1800.588,-671.0 1800.0,-671.588 1799.7939999999999,-672.0 1799.7939999999999,-687.0 1799.793,-688.0 1799.793,-702.0 1799.412,-702.6510000000001 1799.412,-895.2059999999999 1800.0,-895.2059999999999 1801.0,-895.207 1831.0,-895.207"/>
<polygon class="l0d0" points="1816.206,-1103.0 1816.2069999999999,-1102.0 1816.2069999999999,-1088.0 1817.0,-1087.206 1831.0,-1087.206 1831.413,-1087.0 1832.0,-1086.413 1832.206,-1086.0 1832.206,-1072.0 1833.0,-1071.207 1896.0,-1071.207 1896.0,-943.587 1895.413,-943.0 1895.0,-942.794 1880.0,-942.794 1879.0,-942.793 1832.0,-942.793 1831.0,-942.794 1817.0,-942.794 1816.587,-943.0 1816.0,-943.587 1815.7939999999999,-944.0 1815.7939999999999,-958.0 1815.0,-958.793 1801.0,-958.793 1800.587,-959.0 1800.0,-959.587 1799.793,-960.0 1799.793,-974.0 1799.412,-974.3810000000001 1799.412,-1135.0 1816.206,-1135.0"/>
<polygon class="l0d0" points="1896.0,-1231.725 1895.275,-1231.0 1895.0,-1230.8619999999999 1881.0,-1230.8619999999999 1880.2069999999999,-1230.0 1880.2069999999999,-1216.0 1880.0,-1215.587 1879.413,-1215.0 1879.0,-1214.7930000000001 1865.0,-1214.7930000000001 1864.2060000000001,-1214.0 1864.2060000000001,-1200.0 1864.0,-1199.5880000000002 1863.412,-1199.0 1863.0,-1198.7939999999999 1849.0,-1198.7939999999999 1848.196,-1198.0 1848.196,-1184.0 1848.0,-1183.608 1847.3919999999998,-1183.0 1847.0,-1182.8039999999999 1833.0,-1182.8039999999999 1832.206,-1182.0 1832.206,-1168.0 1832.0,-1167.587 1831.413,-1167.0 1831.0,-1166.794 1817.0,-1166.794 1816.2069999999999,-1166.0 1816.2069999999999,-1136.0 1816.206,-1135.0 1799.412,-1135.0 1799.412,-1342.0 1896.0,-1342.0"/>
<polygon class="l0d0" points="1896.0,-1342.0 1799.412,-1342.0 1799.412,-1422.0 1896.0,-1422.0"/>
<polygon class="l0d0" points="1800.0,-1582.412 1800.206,-1582.0 1800.206,-1568.0 1801.0,-1567.207 1815.0,-1567.207 1816.0,-1567.181 1817.0,-1567.154 1831.0,-1567.154 1831.308,-1567.0 1832.0,-1566.308 1832.154,-1566.0 1832.154,-1552.0 1833.0,-1551.207 1847.0,-1551.207 1848.0,-1551.2060000000001 1863.0,-1551.2060000000001 1863.413,-1551.0 1864.0,-1550.413 1864.2060000000001,-1550.0 1864.2060000000001,-1536.0 1865.0,-1535.2069999999999 1896.0,-1535.2069999999999 1896.0,-1422.0 1799.412,-1422.0 1799.412,-1583.0"/>
<polygon class="l0d0" points="1896.0,-1823.587 1895.413,-1823.0 1895.0,-1822.7930000000001 1881.0,-1822.7930000000001 1880.2069999999999,-1822.0 1880.2069999999999,-1808.0 1880.196,-1807.0 1880.186,-1806.0 1880.186,-1792.0 1880.0,-1791.628 1879.372,-1791.0 1879.0,-1790.8139999999999 1865.0,-1790.8139999999999 1864.2069999999999,-1790.0 1864.2069999999999,-1776.0 1864.165,-1774.0 1864.165,-1760.0 1864.0,-1759.671 1863.329,-1759.0 1863.0,-1758.835 1849.0,-1758.835 1848.2069999999999,-1758.0 1848.2069999999999,-1744.0 1848.2050000000002,-1742.0 1848.2050000000002,-1728.0 1848.0,-1727.5910000000001 1847.409,-1727.0 1847.0,-1726.795 1833.0,-1726.795 1832.2069999999999,-1726.0 1832.2069999999999,-1711.0 1832.206,-1710.0 1832.206,-1696.0 1832.0,-1695.587 1831.413,-1695.0 1831.0,-1694.7939999999999 1817.0,-1694.7939999999999 1816.2069999999999,-1694.0 1816.2069999999999,-1664.0 1816.0,-1663.587 1815.413,-1663.0 1815.0,-1662.793 1801.0,-1662.793 1800.2069999999999,-1662.0 1800.2069999999999,-1647.0 1800.206,-1646.0 1800.206,-1632.0 1800.0,-1631.587 1799.413,-1631.0 1799.412,-1631.0 1799.412,-1967.206 1816.0,-1967.206 1817.0,-1967.2069999999999 1847.0,-1967.2069999999999 1847.7939999999999,-1968.0 1847.7939999999999,-1982.0 1848.0,-1982.413 1848.587,-1983.0 1849.0,-1983.2060000000001 1863.0,-1983.2060000000001 1863.7939999999999,-1984.0 1863.7939999999999,-1998.0 1864.0,-1998.413 1864.587,-1999.0 1865.0,-1999.2060000000001 1879.0,-1999.2060000000001 1879.7930000000001,-2000.0 1879.7930000000001,-2013.9999999999998 1880.0,-2014.4129999999998 1880.587,-2015.0000000000002 1881.0,-2015.207 1896.0,-2015.207"/>
<polygon class="l0d0" points="1943.0,-1278.794 1928.0,-1278.794 1927.0,-1278.7949999999998 1913.0,-1278.7949999999998 1912.0,-1278.001 1911.999,-1278.0 1911.999,-1264.0 1911.0,-1263.001 1897.0,-1263.001 1896.999,-1263.0 1896.2069999999999,-1262.0 1896.2069999999999,-1248.0 1896.174,-1247.0 1896.1380000000001,-1246.0 1896.1380000000001,-1232.0 1896.0,-1231.725 1896.0,-1342.0 2024.159,-1342.0 2024.159,-816.0 2024.0,-815.681 2023.319,-815.0 2023.0000000000002,-814.841 2009.0,-814.841 2008.207,-814.0 2008.207,-783.0 2008.206,-782.0 2008.206,-768.0 2008.207,-767.0 2008.207,-688.0 2008.2,-687.0 2008.194,-686.0 2008.194,-672.0 2008.0,-671.612 2007.3880000000001,-671.0 2007.0000000000002,-670.806 1993.0,-670.806 1992.2040000000002,-670.0 1992.2040000000002,-656.0 1992.0,-655.593 1991.407,-655.0 1991.0,-654.796 1977.0,-654.796 1976.0,-654.7950000000001 1975.0,-654.793 1945.0,-654.793 1944.0,-654.2059999999999 1943.788,-654.0 1943.788,-640.0 1943.0,-639.212 1929.0,-639.212 1928.1950000000002,-639.0 1928.0,-638.9590000000001 1927.0,-638.794 1912.0,-638.794 1911.0,-638.793 1896.0,-638.793 1896.0,-831.207 1911.0,-831.207 1911.8059999999998,-832.0 1911.8059999999998,-846.0 1912.0,-846.388 1912.612,-847.0 1913.0,-847.194 1927.0,-847.194 1928.0,-847.1999999999999 1929.0,-847.207 1943.0,-847.207 1943.794,-848.0 1943.794,-862.0 1944.0,-862.4119999999999 1944.588,-863.0 1945.0,-863.206 1959.0,-863.206 1959.794,-864.0 1959.794,-878.0 1960.0,-878.413 1960.587,-879.0 1961.0,-879.206 1975.0,-879.206 1975.793,-880.0 1975.793,-958.0 1975.0,-958.793 1897.0,-958.793 1896.2060000000001,-958.0 1896.2060000000001,-944.0 1896.0,-943.587 1896.0,-1071.207 1927.0,-1071.207 1927.794,-1072.0 1927.794,-1086.0 1928.0,-1086.413 1928.587,-1087.0 1929.0,-1087.206 1943.0,-1087.206 1943.7930000000001,-1088.0 1943.7930000000001,-1278.0"/>
<polygon class="l0d0" points="1976.207,-1344.0 1977.0,-1343.207 2023.0000000000002,-1343.207 2023.7949999999998,-1344.0 2023.7949999999998,-1358.0 2024.0,-1358.4099999999999 2024.159,-1358.569 2024.159,-1342.0 1896.0,-1342.0 1896.0,-1422.0 1976.207,-1422.0"/>
<polygon class="l0d0" points="1928.0,-1535.2060000000001 1944.0,-1535.2060000000001 1945.0,-1535.2069999999999 1975.0,-1535.2069999999999 1975.794,-1536.0 1975.794,-1550.0 1976.0,-1550.4119999999998 1976.588,-1551.0 1977.0,-1551.2060000000001 1991.0,-1551.2060000000001 1991.793,-1552.0 1991.793,-1566.0 1991.7990000000002,-1568.0 1991.7990000000002,-1582.0 1992.0,-1582.402 1992.5980000000002,-1583.0 1993.0,-1583.201 2007.0000000000002,-1583.201 2007.793,-1584.0 2007.793,-1694.0 2007.8140000000003,-1695.0 2007.8360000000002,-1696.0 2007.8360000000002,-1710.0 2008.0,-1710.328 2008.6719999999998,-1711.0 2009.0,-1711.164 2023.0000000000002,-1711.164 2023.793,-1712.0 2023.793,-1726.0 2024.0,-1726.413 2024.159,-1726.572 2024.159,-1471.908 2024.0,-1471.59 2023.41,-1471.0 2023.0000000000002,-1470.795 2009.0,-1470.795 2008.207,-1470.0 2008.207,-1456.0 2008.0,-1455.587 2007.413,-1455.0 2007.0000000000002,-1454.793 1993.0,-1454.793 1992.207,-1454.0 1992.207,-1424.0 1992.0,-1423.587 1991.413,-1423.0 1991.0,-1422.793 1977.0,-1422.793 1976.207,-1422.0 1896.0,-1422.0 1896.0,-1535.2069999999999 1927.0,-1535.2069999999999"/>
<polygon class="l0d0" points="2009.0,-1822.7930000000001 2008.0,-1822.7949999999998 2007.0000000000002,-1822.798 1993.0,-1822.798 1992.5949999999998,-1823.0 1992.0,-1823.595 1991.798,-1824.0 1991.798,-1838.0 1991.0,-1838.793 1897.0,-1838.793 1896.2069999999999,-1838.0 1896.2069999999999,-1824.0 1896.0,-1823.587 1896.0,-2015.207 1975.0,-2015.207 1976.0,-2015.1819999999998 1977.0,-2015.155 1991.0,-2015.155 1991.31,-2015.0000000000002 1992.0,-2014.31 1992.155,-2013.9999999999998 1992.155,-2000.0 1992.1819999999998,-1999.0 1992.207,-1998.0 1992.207,-1968.0 1993.0,-1967.074 2007.0000000000002,-1967.074 2007.148,-1967.0 2008.0,-1966.148 2008.074,-1966.0 2008.074,-1952.0 2009.0,-1951.0829999999999 2023.0000000000002,-1951.0829999999999 2023.1650000000002,-1951.0 2024.0,-1950.165 2024.083,-1950.0 2024.083,-1936.0 2024.159,-1935.934 2024.159,-1807.4289999999999 2024.0,-1807.588 2023.794,-1808.0 2023.794,-1822.0 2023.0000000000002,-1822.7930000000001"/>
<polygon class="l0d0" points="2073.0,-670.793 2072.587,-671.0 2072.0,-671.587 2071.793,-672.0 2071.793,-686.0 2071.0,-686.909 2057.0,-686.909 2056.819,-687.0 2056.0,-687.819 2055.909,-688.0 2055.909,-702.0 2055.848,-703.0 2055.7940000000003,-704.0 2055.7940000000003,-719.0 2055.793,-720.0 2055.793,-798.0 2055.8329999999996,-800.0 2055.8329999999996,-814.0 2056.0,-814.335 2056.665,-815.0 2057.0,-815.167 2071.0,-815.167 2071.7940000000003,-816.0 2071.7940000000003,-830.0 2072.0,-830.413 2072.587,-831.0 2073.0,-831.206 2087.0,-831.206 2088.0,-831.207 2119.0,-831.207 2120.0,-831.9929999999999 2120.005,-832.0 2120.005,-846.0 2121.0,-846.995 2135.0,-846.995 2135.0,-622.794 2121.0,-622.794 2120.588,-623.0 2120.0,-623.5880000000001 2119.7940000000003,-624.0 2119.7940000000003,-638.0 2119.0,-638.794 2105.0,-638.794 2104.588,-639.0 2104.0,-639.5880000000001 2103.7940000000003,-640.0 2103.7940000000003,-654.0 2103.0,-654.793 2089.0,-654.793 2088.587,-655.0 2088.0,-655.587 2087.793,-656.0 2087.793,-670.0 2087.0,-670.793"/>
<polygon class="l0d0" points="2089.0,-1022.794 2088.588,-1022.9999999999999 2088.0,-1023.588 2087.7940000000003,-1024.0 2087.7940000000003,-1038.0 2087.0,-1038.7930000000001 2072.0,-1038.7930000000001 2071.0,-1038.794 2041.0,-1038.794 2040.0,-1038.7930000000001 2025.0,-1038.7930000000001 2024.207,-1038.0 2024.207,-944.0 2025.0,-943.207 2039.0000000000002,-943.207 2039.4130000000002,-943.0 2040.0,-942.4129999999999 2040.207,-942.0 2040.207,-928.0 2041.0,-927.2049999999999 2055.0,-927.2049999999999 2055.4100000000003,-927.0 2056.0,-926.41 2056.205,-926.0 2056.205,-912.0 2056.2070000000003,-910.0 2056.2070000000003,-864.0 2056.0,-863.587 2055.413,-863.0 2055.0,-862.793 2041.0,-862.793 2040.207,-862.0 2040.207,-848.0 2040.0,-847.587 2039.4130000000002,-847.0 2039.0000000000002,-846.793 2025.0,-846.793 2024.207,-846.0 2024.207,-832.0 2024.184,-831.0 2024.159,-830.0 2024.159,-1166.0 2104.2070000000003,-1166.0 2104.2070000000003,-1088.0 2105.0,-1087.207 2135.0,-1087.207 2135.0,-990.793 2121.0,-990.793 2120.587,-991.0 2120.0,-991.587 2119.793,-992.0 2119.793,-1006.0 2119.0,-1006.793 2105.0,-1006.793 2104.587,-1006.9999999999999 2104.0,-1007.587 2103.793,-1008.0 2103.793,-1022.0 2103.0,-1022.794"/>
<polygon class="l0d0" points="2135.0,-1231.271 2121.0,-1231.271 2120.754,-1231.0 2120.2070000000003,-1230.0 2120.2070000000003,-1184.0 2120.1059999999998,-1183.0 2120.0,-1182.1580000000001 2119.977,-1182.0 2119.977,-1168.0 2119.0,-1167.023 2105.0,-1167.023 2104.971,-1167.0 2104.2070000000003,-1166.0 2024.159,-1166.0 2024.159,-1342.0 2135.0,-1342.0"/>
<polygon class="l0d0" points="2071.0,-1486.7930000000001 2025.0,-1486.7930000000001 2024.2049999999997,-1486.0 2024.2049999999997,-1472.0 2024.159,-1471.908 2024.159,-1582.0 2120.2070000000003,-1582.0 2120.2070000000003,-1504.0 2121.0,-1503.2069999999999 2135.0,-1503.2069999999999 2135.0,-1342.0 2024.159,-1342.0 2024.159,-1358.569 2024.59,-1359.0 2025.0,-1359.205 2039.0000000000002,-1359.205 2039.794,-1360.0 2039.794,-1374.0 2040.0,-1374.413 2040.587,-1375.0 2041.0,-1375.206 2055.0,-1375.206 2055.793,-1376.0 2055.793,-1390.0 2055.7940000000003,-1391.0 2055.7940000000003,-1406.0 2056.0,-1406.412 2056.588,-1407.0 2057.0,-1407.206 2071.0,-1407.206 2071.793,-1408.0 2071.793,-1486.0"/>
<polygon class="l0d0" points="2135.0,-1582.892 2121.0,-1582.892 2120.2070000000003,-1582.0 2024.159,-1582.0 2024.159,-1726.572 2024.587,-1727.0 2025.0,-1727.2069999999999 2039.0000000000002,-1727.2069999999999 2039.793,-1728.0 2039.793,-1806.0 2039.0000000000002,-1806.794 2025.0,-1806.794 2024.588,-1807.0 2024.159,-1807.4289999999999 2024.159,-1822.0 2135.0,-1822.0"/>
<polygon class="l0d0" points="2025.0,-1935.2069999999999 2039.0000000000002,-1935.2069999999999 2039.4130000000002,-1935.0 2040.0,-1934.413 2040.207,-1934.0 2040.207,-1920.0 2041.0,-1919.207 2055.0,-1919.207 2055.413,-1919.0 2056.0,-1918.413 2056.2070000000003,-1918.0 2056.2070000000003,-1904.0 2057.0,-1903.206 2071.0,-1903.206 2071.413,-1903.0 2072.0,-1902.413 2072.206,-1902.0 2072.206,-1888.0 2073.0,-1887.206 2087.0,-1887.206 2087.413,-1887.0 2088.0,-1886.4129999999998 2088.206,-1886.0 2088.206,-1872.0 2089.0,-1871.207 2135.0,-1871.207 2135.0,-1822.0 2024.159,-1822.0 2024.159,-1935.934"/>
<polygon class="l0d0" points="2231.413,-574.3810000000001 2231.0,-574.793 2201.0,-574.793 2200.0,-574.806 2199.0,-574.8180000000001 2185.0,-574.8180000000001 2184.6369999999997,-575.0 2184.0,-575.637 2183.818,-576.0 2183.818,-590.0 2183.0,-590.793 2169.0,-590.793 2168.0,-590.812 2167.0,-590.832 2153.0,-590.832 2152.664,-591.0 2152.0,-591.664 2151.8320000000003,-592.0 2151.8320000000003,-606.0 2151.0,-606.794 2137.0,-606.794 2136.589,-607.0 2136.0,-607.589 2135.7940000000003,-608.0 2135.7940000000003,-622.0 2135.0,-622.794 2135.0,-670.0 2231.413,-670.0"/>
<polygon class="l0d0" points="2231.413,-670.0 2135.0,-670.0 2135.0,-846.995 2135.0389999999998,-847.0 2136.0,-847.113 2137.0,-847.207 2167.0,-847.207 2167.7940000000003,-848.0 2167.7940000000003,-862.0 2168.0,-862.4119999999999 2168.588,-863.0 2169.0,-863.206 2184.0,-863.206 2185.0,-863.207 2199.0,-863.207 2199.809,-864.0 2199.809,-878.0 2200.0,-878.381 2200.619,-879.0 2201.0,-879.1909999999999 2215.0,-879.1909999999999 2217.0,-879.207 2231.413,-879.207"/>
<polygon class="l0d0" points="2231.413,-991.0 2231.0,-990.793 2217.0,-990.793 2216.206,-990.0 2216.206,-976.0 2216.0,-975.587 2215.413,-975.0 2215.0,-974.7940000000001 2201.0,-974.7940000000001 2200.0,-974.793 2153.0,-974.793 2152.0,-974.7940000000001 2137.0,-974.7940000000001 2136.587,-975.0 2136.0,-975.587 2135.7940000000003,-976.0 2135.7940000000003,-990.0 2135.0,-990.793 2135.0,-1022.0 2231.413,-1022.0"/>
<polygon class="l0d0" points="2231.413,-1022.0 2135.0,-1022.0 2135.0,-1087.207 2151.0,-1087.207 2151.795,-1088.0 2151.795,-1102.0 2152.0,-1102.411 2152.589,-1103.0 2153.0,-1103.205 2167.0,-1103.205 2167.795,-1104.0 2167.795,-1118.0 2168.0,-1118.411 2168.589,-1119.0 2169.0,-1119.205 2183.0,-1119.205 2183.793,-1120.0 2183.793,-1134.0 2184.0,-1134.4129999999998 2184.587,-1135.0 2185.0,-1135.207 2199.0,-1135.207 2199.793,-1136.0 2199.793,-1214.0 2199.922,-1215.0 2200.0,-1215.4799999999998 2200.101,-1216.0 2200.101,-1230.0 2201.0,-1230.899 2215.0,-1230.899 2215.1130000000003,-1231.0 2215.793,-1232.0 2215.793,-1294.0 2215.0,-1294.794 2201.0,-1294.794 2200.587,-1295.0 2200.0,-1295.587 2199.794,-1296.0 2199.794,-1310.0 2199.0,-1310.7930000000001 2153.0,-1310.7930000000001 2152.206,-1310.0 2152.206,-1296.0 2152.0,-1295.588 2151.4120000000003,-1295.0 2151.0,-1294.794 2137.0,-1294.794 2136.2070000000003,-1294.0 2136.2070000000003,-1264.0 2136.206,-1263.0 2136.206,-1248.0 2136.022,-1247.0 2136.0,-1246.903 2135.729,-1246.0 2135.729,-1232.0 2135.0,-1231.271 2135.0,-1342.0 2231.413,-1342.0"/>
<polygon class="l0d0" points="2231.413,-1342.0 2135.0,-1342.0 2135.0,-1422.0 2231.413,-1422.0"/>
<polygon class="l0d0" points="2135.4129999999996,-1503.0 2136.0,-1502.413 2136.2070000000003,-1502.0 2136.2070000000003,-1488.0 2137.0,-1487.2069999999999 2151.0,-1487.2069999999999 2151.413,-1487.0 2152.0,-1486.413 2152.2070000000003,-1486.0 2152.2070000000003,-1472.0 2153.0,-1471.2069999999999 2231.413,-1471.2069999999999 2231.413,-1422.0 2135.0,-1422.0 2135.0,-1503.2069999999999"/>
<polygon class="l0d0" points="2231.413,-1774.7930000000001 2217.0,-1774.7930000000001 2216.207,-1774.0 2216.207,-1760.0 2216.0,-1759.587 2215.413,-1759.0 2215.0,-1758.7930000000001 2201.0,-1758.7930000000001 2200.207,-1758.0 2200.207,-1744.0 2200.0,-1743.587 2199.413,-1743.0 2199.0,-1742.7930000000001 2185.0,-1742.7930000000001 2184.207,-1742.0 2184.207,-1728.0 2184.189,-1726.0 2184.189,-1712.0 2184.0,-1711.6229999999998 2183.377,-1711.0 2183.0,-1710.8110000000001 2169.0,-1710.8110000000001 2168.2070000000003,-1710.0 2168.2070000000003,-1695.0 2168.206,-1694.0 2168.206,-1680.0 2168.0,-1679.039 2167.989,-1679.0 2167.609,-1678.0 2167.609,-1664.0 2167.0,-1663.391 2153.0,-1663.391 2152.688,-1663.0 2152.2070000000003,-1662.0 2152.2070000000003,-1632.0 2152.0,-1631.587 2151.413,-1631.0 2151.0,-1630.793 2137.0,-1630.793 2136.2070000000003,-1630.0 2136.2070000000003,-1600.0 2136.16,-1599.0 2136.108,-1598.0 2136.108,-1584.0 2136.0,-1583.784 2135.216,-1583.0 2135.0,-1582.892 2135.0,-1822.0 2231.413,-1822.0"/>
<polygon class="l0d0" points="2231.413,-1822.0 2135.0,-1822.0 2135.0,-1871.207 2167.0,-1871.207 2167.793,-1872.0 2167.793,-1886.0 2168.0,-1886.4129999999998 2168.587,-1887.0 2169.0,-1887.207 2183.0,-1887.207 2183.801,-1888.0 2183.801,-1902.0 2184.0,-1902.3980000000001 2184.602,-1903.0 2185.0,-1903.199 2199.0,-1903.199 2201.0,-1903.207 2215.0,-1903.207 2215.794,-1904.0 2215.794,-1918.0 2216.0,-1918.411 2216.589,-1919.0 2217.0,-1919.206 2231.413,-1919.206"/>
<polygon class="l0d0" points="2392.207,-479.56300000000005 2392.0,-479.77 2391.8849999999998,-480.0 2391.8849999999998,-494.0 2391.0,-494.793 2377.0,-494.793 2376.0,-494.858 2375.0,-494.93399999999997 2361.0,-494.93399999999997 2360.8669999999997,-495.0 2360.0,-495.867 2359.934,-496.0 2359.934,-510.0 2359.0,-510.79300000000006 2345.0,-510.79300000000006 2344.587,-511.0 2344.0,-511.587 2343.7929999999997,-512.0 2343.7929999999997,-526.0 2343.0,-526.793 2329.0,-526.793 2328.0,-526.794 2313.0,-526.794 2312.5879999999997,-527.0 2312.0,-527.588 2311.794,-528.0 2311.794,-542.0 2311.0,-542.793 2281.0,-542.793 2280.0,-542.8190000000001 2279.0,-542.846 2265.0,-542.846 2264.692,-543.0 2264.0,-543.692 2263.846,-544.0 2263.846,-558.0 2263.0,-558.793 2248.0,-558.793 2247.0,-558.794 2233.0,-558.794 2232.587,-559.0 2232.0,-559.587 2231.794,-560.0 2231.794,-574.0 2231.413,-574.3810000000001 2231.413,-670.0 2392.207,-670.0"/>
<polygon class="l0d0" points="2296.0,-879.206 2311.0,-879.206 2311.412,-879.0 2312.0,-878.4119999999999 2312.206,-878.0 2312.206,-864.0 2313.0,-863.207 2327.0,-863.207 2327.413,-863.0 2328.0,-862.413 2328.207,-862.0 2328.207,-848.0 2328.814,-847.0 2329.0,-846.8149999999999 2343.0,-846.8149999999999 2343.815,-846.0 2343.815,-832.0 2344.0,-831.25 2344.049,-831.0 2344.2059999999997,-830.0 2344.2059999999997,-815.0 2344.207,-814.0 2344.207,-768.0 2344.8509999999997,-767.0 2345.0,-766.861 2359.0,-766.861 2359.861,-766.0 2359.861,-752.0 2360.0,-751.316 2360.0530000000003,-751.0 2360.1899999999996,-750.0 2360.1899999999996,-736.0 2360.199,-735.0 2360.207,-734.0 2360.207,-720.0 2361.0,-719.094 2375.0,-719.094 2375.188,-719.0 2376.0,-718.1880000000001 2376.094,-718.0 2376.094,-704.0 2377.0,-703.207 2392.207,-703.207 2392.207,-670.0 2231.413,-670.0 2231.413,-879.207 2295.0,-879.207"/>
<polygon class="l0d0" points="2329.0,-910.793 2328.0,-910.9209999999999 2327.505,-911.0 2327.0,-911.096 2313.0,-911.096 2312.096,-912.0 2312.096,-926.0 2312.0,-926.505 2311.921,-927.0 2311.793,-928.0 2311.793,-942.0 2311.0,-942.794 2297.0,-942.794 2296.587,-943.0 2296.0,-943.587 2295.794,-944.0 2295.794,-958.0 2295.793,-959.0 2295.793,-990.0 2295.0,-990.9599999999999 2281.0,-990.9599999999999 2280.919,-991.0 2280.0,-991.919 2279.96,-992.0 2279.96,-1006.0 2279.0,-1006.7950000000001 2265.0,-1006.7950000000001 2264.0,-1006.794 2248.0,-1006.794 2247.0,-1006.793 2233.0,-1006.793 2232.207,-1006.0 2232.207,-992.0 2232.0,-991.587 2231.413,-991.0 2231.413,-1022.0 2392.207,-1022.0 2392.207,-910.793"/>
<polygon class="l0d0" points="2392.207,-1022.0 2231.413,-1022.0 2231.413,-1342.0 2392.207,-1342.0"/>
<polygon class="l0d0" points="2392.207,-1342.0 2231.413,-1342.0 2231.413,-1422.0 2392.207,-1422.0"/>
<polygon class="l0d0" points="2295.793,-1742.0 2295.0,-1742.7939999999999 2281.0,-1742.7939999999999 2280.587,-1743.0 2280.0,-1743.587 2279.794,-1744.0 2279.794,-1758.0 2279.0,-1758.7939999999999 2265.0,-1758.7939999999999 2264.587,-1759.0 2264.0,-1759.587 2263.794,-1760.0 2263.794,-1774.0 2263.0,-1774.7930000000001 2231.413,-1774.7930000000001 2231.413,-1822.0 2392.207,-1822.0 2392.207,-1422.0 2231.413,-1422.0 2231.413,-1471.2069999999999 2311.0,-1471.2069999999999 2311.793,-1472.0 2311.793,-1710.0 2311.0,-1710.795 2297.0,-1710.795 2296.589,-1711.0 2296.0,-1711.589 2295.795,-1712.0 2295.795,-1726.0 2295.793,-1728.0"/>
<polygon class="l0d0" points="2280.0,-1935.191 2281.0,-1935.178 2295.0,-1935.178 2295.3559999999998,-1935.0 2296.0,-1934.356 2296.178,-1934.0 2296.178,-1920.0 2297.0,-1919.206 2311.0,-1919.206 2311.412,-1919.0 2312.0,-1918.412 2312.206,-1918.0 2312.206,-1903.0 2312.207,-1902.0 2312.207,-1888.0 2313.0,-1887.206 2327.0,-1887.206 2327.413,-1887.0 2328.0,-1886.4129999999998 2328.206,-1886.0 2328.206,-1872.0 2329.0,-1871.206 2343.0,-1871.206 2343.411,-1871.0 2344.0,-1870.411 2344.2059999999997,-1870.0 2344.2059999999997,-1856.0 2345.0,-1855.207 2392.207,-1855.207 2392.207,-1822.0 2231.413,-1822.0 2231.413,-1919.206 2232.0,-1919.206 2233.0,-1919.207 2247.0,-1919.207 2248.0,-1919.952 2248.0389999999998,-1920.0 2248.0389999999998,-1934.0 2249.0,-1934.961 2263.0,-1934.961 2263.257,-1935.0 2264.0,-1935.098 2265.0,-1935.203 2279.0,-1935.203"/>
<polygon class="l0d0" points="2472.207,-608.0 2473.0,-607.206 2487.0,-607.206 2487.413,-607.0 2488.0,-606.413 2488.206,-606.0 2488.206,-592.0 2489.0,-591.207 2505.0,-591.207 2505.0,-398.793 2504.0,-398.794 2489.0,-398.794 2488.588,-399.0 2488.0,-399.588 2487.794,-400.0 2487.794,-414.0 2487.0,-414.793 2473.0,-414.793 2472.587,-415.0 2472.0,-415.587 2471.793,-416.0 2471.793,-430.0 2471.0,-430.793 2457.0,-430.793 2456.587,-431.0 2456.0,-431.587 2455.7929999999997,-432.0 2455.7929999999997,-446.0 2455.0,-446.79400000000004 2441.0,-446.79400000000004 2440.587,-447.0 2440.0,-447.587 2439.794,-448.0 2439.794,-462.0 2439.0,-462.793 2425.0,-462.793 2424.587,-463.0 2424.0,-463.58700000000005 2423.7929999999997,-464.0 2423.7929999999997,-478.0 2423.0,-478.793 2409.0,-478.793 2408.0,-478.837 2407.0,-478.885 2393.0,-478.885 2392.77,-479.0 2392.207,-479.56300000000005 2392.207,-670.0 2472.207,-670.0"/>
<polygon class="l0d0" points="2505.0,-734.793 2504.207,-734.0 2504.207,-720.0 2504.1929999999998,-718.0 2504.1929999999998,-704.0 2504.0,-703.6139999999999 2503.386,-703.0 2503.0,-702.807 2489.0,-702.807 2488.207,-702.0 2488.207,-688.0 2488.1989999999996,-687.0 2488.19,-686.0 2488.19,-672.0 2488.0,-671.6189999999999 2487.381,-671.0 2487.0,-670.8100000000001 2473.0,-670.8100000000001 2472.207,-670.0 2392.207,-670.0 2392.207,-703.207 2407.0,-703.207 2407.794,-704.0 2407.794,-718.0 2408.0,-718.413 2408.587,-719.0 2409.0,-719.206 2423.0,-719.206 2423.7929999999997,-720.0 2423.7929999999997,-734.0 2424.0,-734.413 2424.587,-735.0 2425.0,-735.2070000000001 2439.0,-735.2070000000001 2439.7929999999997,-736.0 2439.7929999999997,-750.0 2440.0,-750.413 2440.587,-751.0 2441.0,-751.207 2455.0,-751.207 2455.794,-752.0 2455.794,-766.0 2456.0,-766.413 2456.587,-767.0 2457.0,-767.206 2471.0,-767.206 2471.794,-768.0 2471.794,-782.0 2472.0,-782.413 2472.587,-783.0 2473.0,-783.2059999999999 2487.0,-783.2059999999999 2487.793,-784.0 2487.793,-798.0 2488.0,-798.413 2488.587,-799.0 2489.0,-799.207 2503.0,-799.207 2503.797,-800.0 2503.797,-814.0 2504.0,-814.407 2504.593,-815.0 2505.0,-815.203"/>
<polygon class="l0d0" points="2392.207,-910.793 2392.207,-1022.0 2505.0,-1022.0 2505.0,-910.793"/>
<polygon class="l0d0" points="2407.0,-1055.2060000000001 2407.413,-1055.0 2408.0,-1054.413 2408.2059999999997,-1054.0 2408.2059999999997,-1040.0 2409.0,-1039.2069999999999 2455.0,-1039.2069999999999 2455.7929999999997,-1040.0 2455.7929999999997,-1054.0 2455.842,-1055.0 2455.896,-1056.0 2455.896,-1070.0 2456.0,-1070.2069999999999 2456.7929999999997,-1071.0 2457.0,-1071.104 2471.0,-1071.104 2471.793,-1072.0 2471.793,-1166.0 2471.81,-1167.0 2471.828,-1168.0 2471.828,-1182.0 2472.0,-1182.345 2472.655,-1183.0 2473.0,-1183.1719999999998 2487.0,-1183.1719999999998 2487.793,-1184.0 2487.793,-1198.0 2487.801,-1199.0 2487.808,-1200.0 2487.808,-1214.0 2488.0,-1214.384 2488.616,-1215.0 2489.0,-1215.192 2503.0,-1215.192 2503.793,-1216.0 2503.793,-1310.0 2503.0,-1310.794 2489.0,-1310.794 2488.587,-1311.0 2488.0,-1311.587 2487.794,-1312.0 2487.794,-1326.0 2487.0,-1326.794 2473.0,-1326.794 2472.587,-1327.0 2472.0,-1327.587 2471.794,-1328.0 2471.794,-1342.0 2471.0,-1342.793 2441.0,-1342.793 2440.0,-1342.794 2409.0,-1342.794 2408.0,-1342.793 2393.0,-1342.793 2392.207,-1342.0 2392.207,-1422.0 2505.0,-1422.0 2505.0,-1022.0 2392.207,-1022.0 2392.207,-1056.0 2393.0,-1055.2060000000001"/>
<polygon class="l0d0" points="2440.207,-1504.0 2441.0,-1503.2069999999999 2455.0,-1503.2069999999999 2455.413,-1503.0 2456.0,-1502.413 2456.207,-1502.0 2456.207,-1488.0 2457.0,-1487.2069999999999 2471.0,-1487.2069999999999 2471.413,-1487.0 2472.0,-1486.413 2472.207,-1486.0 2472.207,-1472.0 2473.0,-1471.2069999999999 2487.0,-1471.2069999999999 2487.413,-1471.0 2488.0,-1470.413 2488.207,-1470.0 2488.207,-1456.0 2489.0,-1455.206 2503.0,-1455.206 2503.413,-1455.0 2504.0,-1454.413 2504.206,-1454.0 2504.206,-1440.0 2505.0,-1439.2069999999999 2505.0,-1422.0 2392.207,-1422.0 2392.207,-1726.0 2440.207,-1726.0"/>
<polygon class="l0d0" points="2505.0,-1726.7930000000001 2441.0,-1726.7930000000001 2440.207,-1726.0 2392.207,-1726.0 2392.207,-1822.0 2505.0,-1822.0"/>
<polygon class="l0d0" points="2505.0,-1855.207 2505.0,-1822.0 2392.207,-1822.0 2392.207,-1855.207"/>
<polygon class="l0d0" points="2599.0,-750.793 2521.0,-750.793 2520.207,-750.0 2520.207,-736.0 2520.0,-735.587 2519.413,-735.0 2519.0,-734.793 2505.0,-734.793 2505.0,-815.203 2519.0,-815.203 2521.0,-815.207 2535.0,-815.207 2535.793,-816.0 2535.793,-830.0 2536.0,-830.413 2536.587,-831.0 2537.0,-831.207 2551.0,-831.207 2551.793,-832.0 2551.793,-894.0 2551.0,-894.8159999999999 2537.0,-894.8159999999999 2536.632,-895.0 2536.0,-895.632 2535.8160000000003,-896.0 2535.8160000000003,-910.0 2535.0,-910.793 2505.0,-910.793 2505.0,-1022.0 2616.0,-1022.0 2616.0,-559.587 2615.413,-559.0 2615.0,-558.793 2601.0,-558.793 2600.2070000000003,-558.0 2600.2070000000003,-544.0 2600.206,-543.0 2600.206,-528.0 2600.0,-527.587 2599.413,-527.0 2599.0,-526.794 2585.0,-526.794 2584.2070000000003,-526.0 2584.2070000000003,-448.0 2585.0,-447.207 2599.0,-447.207 2599.413,-447.0 2600.0,-446.413 2600.2070000000003,-446.0 2600.2070000000003,-432.0 2601.0,-431.207 2615.0,-431.207 2615.413,-431.0 2616.0,-430.413 2616.0,-319.587 2615.793,-320.0 2615.793,-334.0 2615.0,-334.793 2601.0,-334.793 2600.0,-334.835 2599.0,-334.881 2585.0,-334.881 2584.762,-335.0 2584.0,-335.762 2583.881,-336.0 2583.881,-350.0 2583.0,-350.793 2569.0,-350.793 2568.587,-351.0 2568.0,-351.587 2567.793,-352.0 2567.793,-366.0 2567.0,-366.793 2553.0,-366.793 2551.0,-366.801 2537.0,-366.801 2536.601,-367.0 2536.0,-367.601 2535.8010000000004,-368.0 2535.8010000000004,-382.0 2535.0,-382.793 2521.0,-382.793 2520.587,-383.0 2520.0,-383.587 2519.793,-384.0 2519.793,-398.0 2519.0,-398.793 2505.0,-398.793 2505.0,-591.207 2567.0,-591.207 2567.814,-592.0 2567.814,-606.0 2568.0,-606.3720000000001 2568.6279999999997,-607.0 2569.0,-607.186 2583.0,-607.186 2583.7940000000003,-608.0 2583.7940000000003,-622.0 2583.851,-623.0 2583.9159999999997,-624.0 2583.9159999999997,-638.0 2584.0,-638.168 2584.832,-639.0 2585.0,-639.084 2599.0,-639.084 2599.793,-640.0 2599.793,-750.0"/>
<polygon class="l0d0" points="2616.0,-1022.0 2505.0,-1022.0 2505.0,-1422.0 2616.0,-1422.0"/>
<polygon class="l0d0" points="2521.0,-1439.206 2552.0,-1439.206 2553.0,-1439.2069999999999 2567.0,-1439.2069999999999 2567.793,-1440.0 2567.793,-1454.0 2567.7940000000003,-1455.0 2567.7940000000003,-1470.0 2568.0,-1470.413 2568.587,-1471.0 2569.0,-1471.206 2583.0,-1471.206 2583.793,-1472.0 2583.793,-1535.0 2583.7940000000003,-1536.0 2583.7940000000003,-1550.0 2583.822,-1551.0 2583.853,-1552.0 2583.853,-1566.0 2584.0,-1566.295 2584.705,-1567.0 2585.0,-1567.1470000000002 2599.0,-1567.1470000000002 2599.793,-1568.0 2599.793,-1614.0 2599.0,-1614.836 2585.0,-1614.836 2584.673,-1615.0 2584.0,-1615.673 2583.836,-1616.0 2583.836,-1630.0 2583.814,-1631.0 2583.793,-1632.0 2583.793,-1662.0 2583.0,-1662.793 2569.0,-1662.793 2568.587,-1663.0 2568.0,-1663.587 2567.793,-1664.0 2567.793,-1678.0 2567.0,-1678.8220000000001 2553.0,-1678.8220000000001 2552.644,-1679.0 2552.0,-1679.644 2551.822,-1680.0 2551.822,-1694.0 2551.0,-1694.867 2537.0,-1694.867 2536.7329999999997,-1695.0 2536.0,-1695.733 2535.867,-1696.0 2535.867,-1710.0 2535.0,-1710.7930000000001 2521.0,-1710.7930000000001 2520.587,-1711.0 2520.0,-1711.587 2519.793,-1712.0 2519.793,-1726.0 2519.0,-1726.7930000000001 2505.0,-1726.7930000000001 2505.0,-1822.0 2616.0,-1822.0 2616.0,-1422.0 2505.0,-1422.0 2505.0,-1439.2069999999999 2520.0,-1439.2069999999999"/>
<polygon class="l0d0" points="2521.0,-1855.206 2535.0,-1855.206 2535.413,-1855.0 2536.0,-1854.413 2536.206,-1854.0 2536.206,-1840.0 2537.0,-1839.207 2599.0,-1839.207 2599.798,-1840.0 2599.798,-1854.0 2600.0,-1854.404 2600.596,-1855.0 2601.0,-1855.202 2615.0,-1855.202 2615.793,-1856.0 2615.793,-1886.0 2615.7940000000003,-1887.0 2615.7940000000003,-1902.0 2616.0,-1902.412 2616.0,-1822.0 2505.0,-1822.0 2505.0,-1855.207 2520.0,-1855.207"/>
<polygon class="l0d0" points="2616.2070000000003,-430.0 2616.2070000000003,-416.0 2617.0,-415.207 2631.0,-415.207 2631.4129999999996,-415.0 2632.0,-414.41299999999995 2632.2070000000003,-414.0 2632.2070000000003,-400.0 2633.0,-399.207 2647.0,-399.207 2647.413,-399.0 2648.0,-398.413 2648.2070000000003,-398.0 2648.2070000000003,-384.0 2649.0,-383.207 2663.0,-383.207 2664.0,-383.204 2665.0,-383.202 2679.0,-383.202 2679.4030000000002,-383.0 2680.0,-382.403 2680.2019999999998,-382.0 2680.2019999999998,-368.0 2681.0,-367.207 2695.895,-367.207 2695.895,-254.278 2695.0,-254.794 2681.0,-254.794 2680.587,-255.0 2680.0,-255.58700000000002 2679.794,-256.0 2679.794,-270.0 2679.0,-270.793 2665.0,-270.793 2664.587,-271.0 2664.0,-271.58700000000005 2663.793,-272.0 2663.793,-286.0 2663.0,-286.793 2649.0,-286.793 2648.587,-287.0 2648.0,-287.587 2647.793,-288.0 2647.793,-302.0 2647.0,-302.793 2633.0,-302.793 2632.587,-303.0 2632.0,-303.587 2631.793,-304.0 2631.793,-318.0 2631.0,-318.793 2617.0,-318.793 2616.587,-319.0 2616.0,-319.587 2616.0,-430.413"/>
<polygon class="l0d0" points="2695.895,-495.86400000000003 2695.8269999999998,-496.0 2695.8269999999998,-510.0 2695.793,-512.0 2695.793,-526.0 2695.299,-527.0 2695.0,-527.366 2681.0,-527.366 2680.366,-528.0 2680.366,-542.0 2680.004,-543.0 2680.0,-543.014 2679.793,-544.0 2679.793,-558.0 2679.0,-558.794 2665.0,-558.794 2664.587,-559.0 2664.0,-559.587 2663.7940000000003,-560.0 2663.7940000000003,-574.0 2663.0,-574.793 2632.0,-574.793 2631.0,-574.794 2617.0,-574.794 2616.2070000000003,-574.0 2616.2070000000003,-560.0 2616.0,-559.587 2616.0,-734.0 2695.895,-734.0"/>
<polygon class="l0d0" points="2695.895,-734.0 2616.0,-734.0 2616.0,-830.0 2695.895,-830.0"/>
<polygon class="l0d0" points="2616.0,-830.0 2616.0,-1022.0 2616.2070000000003,-1022.0 2616.2070000000003,-992.0 2616.746,-991.0 2617.0,-990.716 2631.0,-990.716 2631.716,-990.0 2631.716,-976.0 2632.0,-975.746 2633.0,-975.206 2664.0,-975.206 2665.0,-975.207 2679.0,-975.207 2679.8,-976.0 2679.8,-990.0 2680.0,-990.399 2680.6009999999997,-991.0 2681.0,-991.1999999999999 2695.0,-991.1999999999999 2695.895,-992.0 2695.895,-830.0"/>
<polygon class="l0d0" points="2664.2070000000003,-1296.0 2664.671,-1295.0 2665.0,-1294.5729999999999 2679.0,-1294.5729999999999 2679.573,-1294.0 2679.573,-1280.0 2679.98,-1279.0 2680.207,-1278.0 2680.207,-1264.0 2681.0,-1263.2060000000001 2695.0,-1263.2060000000001 2695.413,-1263.0 2695.895,-1262.518 2695.895,-1118.793 2649.0,-1118.793 2648.1620000000003,-1118.0 2648.1620000000003,-1104.0 2648.0,-1103.677 2647.3230000000003,-1103.0 2647.0,-1102.838 2633.0,-1102.838 2632.2070000000003,-1102.0 2632.2070000000003,-1056.0 2632.206,-1055.0 2632.206,-1040.0 2632.096,-1039.0 2632.0,-1038.3020000000001 2631.952,-1038.0 2631.952,-1024.0 2631.0,-1023.048 2617.0,-1023.048 2616.9410000000003,-1022.9999999999999 2616.2070000000003,-1022.0 2616.0,-1022.0 2616.0,-1422.0 2664.2070000000003,-1422.0"/>
<polygon class="l0d0" points="2695.895,-1439.482 2695.413,-1439.0 2695.0,-1438.7939999999999 2681.0,-1438.7939999999999 2680.207,-1438.0 2680.207,-1424.0 2680.0,-1423.587 2679.413,-1423.0 2679.0,-1422.793 2665.0,-1422.793 2664.2070000000003,-1422.0 2616.0,-1422.0 2616.0,-1518.0 2695.895,-1518.0"/>
<polygon class="l0d0" points="2695.895,-1518.0 2616.0,-1518.0 2616.0,-1598.0 2695.895,-1598.0"/>
<polygon class="l0d0" points="2664.2070000000003,-1712.0 2665.0,-1711.2069999999999 2679.0,-1711.2069999999999 2679.413,-1711.0 2680.0,-1710.413 2680.207,-1710.0 2680.207,-1696.0 2681.0,-1695.206 2695.0,-1695.206 2695.4120000000003,-1695.0 2695.895,-1694.517 2695.895,-1598.0 2616.0,-1598.0 2616.0,-1822.0 2664.2070000000003,-1822.0"/>
<polygon class="l0d0" points="2680.0,-2015.2060000000001 2695.0,-2015.2060000000001 2695.895,-2015.1720000000003 2695.895,-1854.307 2695.448,-1854.0 2695.448,-1840.0 2695.0,-1839.5520000000001 2681.0,-1839.5520000000001 2680.564,-1839.0 2680.0130000000004,-1838.0 2680.0130000000004,-1824.0 2679.027,-1823.0 2665.0,-1822.9869999999999 2664.2070000000003,-1822.0 2616.0,-1822.0 2616.0,-1902.412 2616.588,-1903.0 2617.0,-1903.206 2631.0,-1903.206 2631.793,-1904.0 2631.793,-1934.0 2631.795,-1936.0 2631.795,-1950.0 2631.846,-1951.0 2631.904,-1952.0 2631.904,-1966.0 2631.935,-1967.0 2631.9680000000003,-1968.0 2631.9680000000003,-1982.0 2631.8990000000003,-1983.0 2631.84,-1984.0 2631.84,-1998.0 2632.0,-1998.3200000000002 2632.6800000000003,-1999.0 2633.0,-1999.16 2647.0,-1999.16 2647.7940000000003,-2000.0 2647.7940000000003,-2013.9999999999998 2648.0,-2014.4129999999998 2648.587,-2015.0000000000002 2649.0,-2015.2060000000001 2664.0,-2015.2060000000001 2665.0,-2015.207 2679.0,-2015.207"/>
<polygon class="l0d0" points="2696.0,-367.207 2697.0,-367.20599999999996 2711.0,-367.20599999999996 2712.0,-367.18899999999996 2713.0,-367.17100000000005 2727.0,-367.17100000000005 2727.342,-367.0 2728.0,-366.342 2728.1710000000003,-366.0 2728.1710000000003,-352.0 2729.0,-351.207 2743.0,-351.207 2743.971,-351.0 2744.0,-350.992 2745.0,-350.619 2759.0,-350.619 2759.6189999999997,-350.0 2759.6189999999997,-336.0 2760.0,-335.61600000000004 2760.815,-335.0 2761.0,-334.88800000000003 2775.0,-334.88800000000003 2775.413,-334.475 2775.413,-206.382 2775.0,-206.793 2761.0,-206.793 2759.0,-206.823 2745.0,-206.823 2744.647,-207.0 2744.0,-207.647 2743.823,-208.0 2743.823,-222.0 2743.0,-222.79399999999998 2729.0,-222.79399999999998 2728.587,-223.0 2728.0,-223.58700000000002 2727.794,-224.0 2727.794,-238.0 2727.0,-238.793 2713.0,-238.793 2712.0,-238.964 2711.833,-239.0 2711.0,-239.228 2697.0,-239.228 2696.228,-240.0 2696.228,-254.0 2696.0,-254.218 2695.895,-254.278 2695.895,-367.207"/>
<polygon class="l0d0" points="2775.413,-430.38 2775.0,-430.793 2761.0,-430.793 2760.587,-431.0 2760.0,-431.587 2759.793,-432.0 2759.793,-446.0 2759.0,-446.793 2745.0,-446.793 2744.587,-447.0 2744.0,-447.587 2743.793,-448.0 2743.793,-462.0 2743.0,-462.793 2729.0,-462.793 2728.587,-463.0 2728.0,-463.58700000000005 2727.793,-464.0 2727.793,-478.0 2727.0,-478.793 2713.0,-478.793 2712.587,-479.0 2712.0,-479.587 2711.793,-480.0 2711.793,-494.0 2711.0,-494.827 2697.0,-494.827 2696.654,-495.0 2696.0,-495.654 2695.895,-495.86400000000003 2695.895,-734.0 2775.413,-734.0"/>
<polygon class="l0d0" points="2728.205,-816.0 2728.207,-814.0 2728.207,-784.0 2729.0,-783.207 2743.0,-783.207 2743.413,-783.0 2744.0,-782.413 2744.207,-782.0 2744.207,-768.0 2745.0,-767.207 2759.0,-767.207 2760.0,-767.16 2761.0,-767.107 2775.0,-767.107 2775.413,-767.122 2775.413,-734.0 2695.895,-734.0 2695.895,-830.0 2728.205,-830.0"/>
<polygon class="l0d0" points="2696.0,-1262.413 2696.206,-1262.0 2696.206,-1248.0 2697.0,-1247.2069999999999 2711.0,-1247.2069999999999 2711.413,-1247.0 2712.0,-1246.413 2712.207,-1246.0 2712.207,-1232.0 2713.0,-1231.2069999999999 2727.0,-1231.2069999999999 2727.413,-1231.0 2728.0,-1230.413 2728.207,-1230.0 2728.207,-1216.0 2729.0,-1215.2069999999999 2775.413,-1215.2069999999999 2775.413,-895.0 2775.0,-894.7929999999999 2761.0,-894.7929999999999 2760.206,-894.0 2760.206,-880.0 2760.0,-879.587 2759.413,-879.0 2759.0,-878.794 2745.0,-878.794 2744.207,-878.0 2744.207,-864.0 2744.0,-863.587 2743.413,-863.0 2743.0,-862.793 2729.0,-862.793 2728.207,-862.0 2728.207,-832.0 2728.205,-830.0 2695.895,-830.0 2695.895,-1006.0 2696.0,-1006.21 2696.79,-1006.9999999999999 2697.0,-1007.1049999999999 2711.0,-1007.1049999999999 2711.794,-1008.0 2711.794,-1022.0 2712.0,-1022.4120000000001 2712.588,-1022.9999999999999 2713.0,-1023.206 2727.0,-1023.206 2727.793,-1024.0 2727.793,-1038.0 2727.95,-1039.0 2728.0,-1039.252 2728.184,-1040.0 2728.184,-1054.0 2729.0,-1054.816 2743.0,-1054.816 2743.186,-1055.0 2743.793,-1056.0 2743.793,-1102.0 2743.0,-1102.794 2729.0,-1102.794 2728.5879999999997,-1103.0 2728.0,-1103.588 2727.794,-1104.0 2727.794,-1118.0 2727.0,-1118.793 2695.895,-1118.793 2695.895,-1262.518"/>
<polygon class="l0d0" points="2775.413,-1374.3799999999999 2775.0,-1374.793 2761.0,-1374.793 2760.587,-1375.0 2760.0,-1375.587 2759.793,-1376.0 2759.793,-1406.0 2759.27,-1407.0 2759.0,-1407.311 2745.0,-1407.311 2744.311,-1408.0 2744.311,-1422.0 2744.0,-1422.954 2743.794,-1424.0 2743.793,-1454.0 2743.0,-1454.793 2697.0,-1454.793 2696.206,-1454.0 2696.206,-1440.0 2696.0,-1439.587 2695.895,-1439.482 2695.895,-1518.0 2775.413,-1518.0"/>
<polygon class="l0d0" points="2775.413,-1518.0 2695.895,-1518.0 2695.895,-1598.0 2775.413,-1598.0"/>
<polygon class="l0d0" points="2696.0,-1694.412 2696.206,-1694.0 2696.206,-1680.0 2697.0,-1679.2069999999999 2775.413,-1679.2069999999999 2775.413,-1598.0 2695.895,-1598.0 2695.895,-1694.517"/>
<polygon class="l0d0" points="2696.0,-2015.1680000000001 2697.0,-2015.126 2711.0,-2015.126 2711.253,-2015.0000000000002 2712.0,-2014.2530000000002 2712.126,-2013.9999999999998 2712.126,-2000.0 2713.0,-1999.2069999999999 2759.0,-1999.2069999999999 2760.0,-1999.2060000000001 2775.0,-1999.2060000000001 2775.413,-1999.0 2775.413,-1854.793 2697.0,-1854.793 2696.0,-1854.379 2695.895,-1854.307 2695.895,-2015.1720000000003"/>
<polygon class="l0d0" points="2775.888,-334.0 2775.888,-320.0 2776.0,-319.84000000000003 2776.831,-319.0 2777.0,-318.88 2791.0,-318.88 2791.88,-318.0 2791.88,-304.0 2792.0,-303.86 2793.0,-303.134 2807.0,-303.134 2807.268,-303.0 2808.0,-302.268 2808.134,-302.0 2808.134,-288.0 2809.0,-287.207 2840.207,-287.207 2840.207,-190.79299999999998 2793.0,-190.79299999999998 2792.0,-190.795 2791.0,-190.796 2777.0,-190.796 2776.592,-191.0 2776.0,-191.592 2775.7960000000003,-192.0 2775.7960000000003,-206.0 2775.413,-206.382 2775.413,-334.475"/>
<polygon class="l0d0" points="2840.207,-382.793 2825.0,-382.793 2823.0,-382.799 2809.0,-382.799 2808.599,-383.0 2808.0,-383.59900000000005 2807.799,-384.0 2807.799,-398.0 2807.0,-398.793 2793.0,-398.793 2792.0,-398.952 2791.76,-399.0 2791.0,-399.19 2777.0,-399.19 2776.19,-400.0 2776.19,-414.0 2776.0,-414.76 2775.952,-415.0 2775.793,-416.0 2775.793,-430.0 2775.413,-430.38 2775.413,-734.0 2792.096,-734.0 2792.096,-720.0 2792.821,-719.0 2793.0,-718.847 2807.0,-718.847 2808.0,-718.9910000000001 2808.071,-719.0 2809.0,-719.1030000000001 2823.0,-719.1030000000001 2823.909,-720.0 2823.909,-734.0 2823.044,-735.0 2823.0,-735.0250000000001 2809.0,-735.0250000000001 2808.706,-735.0 2808.0,-734.9440000000001 2807.0,-734.875 2793.0,-734.875 2792.096,-734.0 2775.413,-734.0 2775.413,-767.122 2776.0,-767.143 2777.0,-767.1759999999999 2791.0,-767.1759999999999 2793.0,-767.206 2807.0,-767.206 2807.864,-768.0 2807.864,-782.0 2808.0,-782.2719999999999 2808.728,-783.0 2809.0,-783.1360000000001 2823.0,-783.1360000000001 2824.0,-783.121 2825.0,-783.105 2839.0,-783.105 2840.0,-783.138 2840.207,-783.144"/>
<polygon class="l0d0" points="2840.0,-991.587 2839.413,-991.0 2839.0,-990.793 2825.0,-990.793 2824.207,-990.0 2824.207,-960.0 2824.0,-959.587 2823.413,-959.0 2823.0,-958.793 2809.0,-958.793 2808.207,-958.0 2808.207,-944.0 2808.206,-943.0 2808.206,-928.0 2808.0,-927.5870000000001 2807.413,-927.0 2807.0,-926.794 2793.0,-926.794 2792.207,-926.0 2792.207,-912.0 2792.0,-911.587 2791.413,-911.0 2791.0,-910.793 2777.0,-910.793 2776.207,-910.0 2776.207,-896.0 2776.0,-895.587 2775.413,-895.0 2775.413,-1215.2069999999999 2807.0,-1215.2069999999999 2807.794,-1216.0 2807.794,-1230.0 2808.0,-1230.412 2808.5879999999997,-1231.0 2809.0,-1231.2060000000001 2823.0,-1231.2060000000001 2823.793,-1232.0 2823.793,-1278.0 2823.0,-1278.7949999999998 2809.0,-1278.7949999999998 2808.59,-1279.0 2808.0,-1279.59 2807.795,-1280.0 2807.793,-1310.0 2807.0,-1310.7930000000001 2793.0,-1310.7930000000001 2792.587,-1311.0 2792.0,-1311.587 2791.793,-1312.0 2791.793,-1342.0 2791.0,-1342.793 2777.0,-1342.793 2776.587,-1343.0 2776.0,-1343.587 2775.793,-1344.0 2775.793,-1374.0 2775.413,-1374.3799999999999 2775.413,-1518.0 2840.207,-1518.0 2840.207,-992.0"/>
<polygon class="l0d0" points="2776.207,-1552.0 2777.0,-1551.2060000000001 2791.0,-1551.2060000000001 2791.413,-1551.0 2792.0,-1550.413 2792.206,-1550.0 2792.206,-1536.0 2793.0,-1535.2069999999999 2840.207,-1535.2069999999999 2840.207,-1518.0 2775.413,-1518.0 2775.413,-1598.0 2776.207,-1598.0"/>
<polygon class="l0d0" points="2840.207,-1614.793 2793.0,-1614.793 2792.064,-1614.0 2792.064,-1600.0 2792.0,-1599.872 2791.128,-1599.0 2791.0,-1598.936 2777.0,-1598.936 2776.207,-1598.0 2775.413,-1598.0 2775.413,-1679.2069999999999 2791.0,-1679.2069999999999 2791.809,-1680.0 2791.809,-1694.0 2792.0,-1694.382 2792.618,-1695.0 2793.0,-1695.1909999999998 2840.207,-1695.198"/>
<polygon class="l0d0" points="2776.0,-1998.413 2776.206,-1998.0 2776.206,-1984.0 2777.0,-1983.2069999999999 2807.0,-1983.2069999999999 2807.413,-1983.0 2808.0,-1982.413 2808.207,-1982.0 2808.207,-1968.0 2809.0,-1967.2069999999999 2823.0,-1967.2069999999999 2824.0,-1967.206 2839.0,-1967.206 2839.411,-1967.0 2840.0,-1966.4109999999998 2840.2059999999997,-1966.0 2840.2059999999997,-1952.0 2840.207,-1951.999 2840.207,-1807.3799999999999 2840.0,-1807.587 2839.794,-1808.0 2839.794,-1822.0 2839.0,-1822.7930000000001 2825.0,-1822.7930000000001 2824.587,-1823.0 2824.0,-1823.587 2823.793,-1824.0 2823.793,-1838.0 2823.0,-1838.793 2793.0,-1838.794 2792.587,-1839.0 2792.0,-1839.587 2791.794,-1840.0 2791.794,-1854.0 2791.0,-1854.793 2775.413,-1854.793 2775.413,-1999.0"/>
<polygon class="l0d0" points="2919.0,-287.207 2919.413,-287.0 2920.0,-286.41299999999995 2920.207,-286.0 2920.207,-272.0 2921.0,-271.207 2935.0,-271.207 2935.413,-271.0 2936.0,-270.413 2936.207,-270.0 2936.207,-256.0 2936.2059999999997,-255.0 2936.2059999999997,-240.0 2936.0,-239.588 2935.412,-239.0 2935.0,-238.794 2921.0,-238.794 2920.207,-238.0 2920.207,-224.0 2920.0,-223.58700000000002 2919.413,-223.0 2919.0,-222.79299999999998 2905.0,-222.79299999999998 2904.2059999999997,-222.0 2904.2059999999997,-208.0 2904.0,-207.587 2903.413,-207.0 2903.0,-206.794 2889.0,-206.794 2888.0,-206.793 2873.0,-206.793 2872.207,-206.0 2872.207,-192.0 2872.0,-191.58700000000002 2871.413,-191.0 2871.0,-190.79299999999998 2840.207,-190.79299999999998 2840.207,-287.207"/>
<polygon class="l0d0" points="2936.207,-398.793 2905.0,-398.793 2904.0,-398.077 2903.935,-398.0 2903.935,-384.0 2903.0,-383.065 2889.0,-383.065 2888.621,-383.0 2888.0,-382.909 2887.0,-382.793 2840.207,-382.793 2840.207,-783.144 2841.0,-783.169 2855.0,-783.169 2857.0,-783.205 2871.0,-783.205 2871.794,-784.0 2871.794,-798.0 2872.0,-798.413 2872.587,-799.0 2873.0,-799.206 2887.0,-799.206 2887.7929999999997,-800.0 2887.7929999999997,-814.0 2887.808,-815.0 2887.822,-816.0 2887.822,-830.0 2888.0,-830.3549999999999 2888.645,-831.0 2889.0,-831.178 2903.0,-831.178 2903.7929999999997,-832.0 2903.7929999999997,-846.0 2903.797,-847.0 2903.7999999999997,-848.0 2903.7999999999997,-862.0 2904.0,-862.4000000000001 2904.6,-863.0 2905.0,-863.1999999999999 2919.0,-863.1999999999999 2919.7929999999997,-864.0 2919.7929999999997,-894.0 2919.83,-895.0 2919.87,-896.0 2919.87,-910.0 2920.0,-910.26 2920.74,-911.0 2921.0,-911.13 2935.0,-911.13 2935.7929999999997,-912.0 2935.7929999999997,-1054.0 2935.794,-1055.0 2935.794,-1087.0 2935.7929999999997,-1088.0 2935.7929999999997,-1102.0 2935.0,-1102.793 2889.0,-1102.793 2888.2059999999997,-1102.0 2888.2059999999997,-1088.0 2888.0,-1087.587 2887.413,-1087.0 2887.0,-1086.794 2873.0,-1086.794 2872.207,-1086.0 2872.207,-1072.0 2872.0,-1071.587 2871.413,-1071.0 2871.0,-1070.7930000000001 2857.0,-1070.7930000000001 2856.207,-1070.0 2856.207,-1040.0 2856.2059999999997,-1039.0 2856.2059999999997,-1024.0 2856.0,-1023.588 2855.412,-1022.9999999999999 2855.0,-1022.794 2841.0,-1022.794 2840.207,-1022.0 2840.207,-1518.0 2936.207,-1518.0"/>
<polygon class="l0d0" points="2841.0,-1951.2069999999999 2855.0,-1951.2069999999999 2857.0,-1951.1689999999999 2871.0,-1951.1689999999999 2871.338,-1951.0 2872.0,-1950.338 2872.169,-1950.0 2872.169,-1936.0 2873.0,-1935.2050000000002 2887.0,-1935.2050000000002 2887.411,-1935.0 2888.0,-1934.411 2888.205,-1934.0 2888.205,-1920.0 2889.0,-1919.206 2903.0,-1919.206 2903.412,-1919.0 2904.0,-1918.412 2904.2059999999997,-1918.0 2904.2059999999997,-1904.0 2905.0,-1903.202 2919.0,-1903.202 2919.404,-1903.0 2920.0,-1902.404 2920.202,-1902.0 2920.202,-1888.0 2920.204,-1887.0 2920.207,-1886.0 2920.207,-1872.0 2921.0,-1871.207 2935.0,-1871.207 2935.413,-1871.0 2936.0,-1870.413 2936.207,-1870.0 2936.207,-1518.0 2840.207,-1518.0 2840.207,-1535.2069999999999 2855.0,-1535.2069999999999 2855.7929999999997,-1536.0 2855.7929999999997,-1550.0 2856.0,-1550.413 2856.587,-1551.0 2857.0,-1551.207 2871.0,-1551.207 2871.794,-1552.0 2871.794,-1566.0 2872.0,-1566.413 2872.587,-1567.0 2873.0,-1567.2060000000001 2887.0,-1567.2060000000001 2887.7929999999997,-1568.0 2887.7929999999997,-1582.0 2887.794,-1583.0 2887.794,-1599.0 2887.7929999999997,-1600.0 2887.7929999999997,-1614.0 2887.0,-1614.793 2840.207,-1614.793 2840.207,-1695.198 2903.0,-1695.2069999999999 2903.7929999999997,-1696.0 2903.7929999999997,-1758.0 2903.0,-1758.7930000000001 2889.0,-1758.7930000000001 2888.587,-1759.0 2888.0,-1759.587 2887.7929999999997,-1760.0 2887.7929999999997,-1774.0 2887.0,-1774.7939999999999 2873.0,-1774.7939999999999 2872.587,-1775.0 2872.0,-1775.587 2871.794,-1776.0 2871.794,-1790.0 2871.0,-1790.7949999999998 2857.0,-1790.7949999999998 2856.59,-1791.0 2856.0,-1791.59 2855.795,-1792.0 2855.795,-1806.0 2855.0,-1806.794 2841.0,-1806.794 2840.587,-1807.0 2840.207,-1807.3799999999999 2840.207,-1951.999"/>
<polygon class="l0d0" points="2951.0,-1391.206 2951.413,-1391.0 2952.0,-1390.413 2952.2059999999997,-1390.0 2952.2059999999997,-1376.0 2953.0,-1375.207 3015.0,-1375.207 3015.793,-1376.0 3015.793,-1598.0 3015.0,-1598.793 3001.0,-1598.793 3000.2,-1598.0 3000.2,-1584.0 3000.0,-1583.599 2999.4010000000003,-1583.0 2999.0,-1582.8 2985.0,-1582.8 2984.087,-1582.0 2984.087,-1568.0 2984.0,-1567.826 2983.174,-1567.0 2983.0,-1566.913 2969.0,-1566.913 2968.2059999999997,-1566.0 2968.2059999999997,-1552.0 2968.0,-1551.587 2967.413,-1551.0 2967.0,-1550.794 2953.0,-1550.794 2952.207,-1550.0 2952.207,-1536.0 2952.2050000000004,-1535.0 2952.204,-1534.0 2952.204,-1520.0 2952.0,-1519.593 2951.407,-1519.0 2951.0,-1518.796 2937.0,-1518.796 2936.207,-1518.0 2936.207,-1856.0 2937.0,-1855.112 2951.0,-1855.112 2951.2239999999997,-1855.0 2952.0,-1854.2240000000002 2952.112,-1854.0 2952.112,-1840.0 2952.162,-1839.0 2952.207,-1838.0 2952.207,-1824.0 2953.0,-1823.207 2967.0,-1823.207 2967.413,-1823.0 2968.0,-1822.413 2968.207,-1822.0 2968.207,-1808.0 2969.0,-1807.203 2983.0,-1807.203 2983.407,-1807.0 2984.0,-1806.4070000000002 2984.203,-1806.0 2984.203,-1792.0 2985.0,-1791.2060000000001 2999.0,-1791.2060000000001 2999.4109999999996,-1791.0 3000.0,-1790.411 3000.206,-1790.0 3000.206,-1776.0 3001.0,-1775.2069999999999 3015.0,-1775.2069999999999 3015.413,-1775.0 3016.0,-1774.413 3016.207,-1774.0 3016.207,-1716.0 3017.0,-1715.2069999999999 4014.9999999999995,-1715.2069999999999 4015.4129999999996,-1715.0 4016.0,-1714.413 4016.2069999999994,-1714.0 4016.2069999999994,-1316.0 4016.0,-1315.587 4015.4129999999996,-1315.0 4014.9999999999995,-1314.7930000000001 3017.0,-1314.7930000000001 3016.207,-1314.0 3016.207,-1232.0 3016.206,-1231.0 3016.206,-1216.0 3016.0,-1215.588 3015.412,-1215.0 3015.0,-1214.7939999999999 3001.0,-1214.7939999999999 3000.207,-1214.0 3000.207,-1200.0 3000.0,-1199.587 2999.413,-1199.0 2999.0,-1198.793 2985.0,-1198.793 2984.207,-1198.0 2984.207,-1151.0 2984.206,-1150.0 2984.206,-1135.0 2984.207,-1134.0 2984.207,-1119.0 2984.206,-1118.0 2984.206,-1104.0 2984.896,-1103.0 2985.0,-1102.9089999999999 2999.0,-1102.9089999999999 2999.909,-1102.0 2999.909,-1088.0 3000.0,-1087.8609999999999 3000.791,-1087.0 3001.0,-1086.84 3015.0,-1086.84 3015.8399999999997,-1086.0 3015.8399999999997,-1072.0 3016.0,-1071.308 3016.058,-1071.0 3016.207,-1070.0 3016.207,-784.0 3016.038,-783.0 3016.0,-782.824 3015.777,-782.0 3015.777,-768.0 3015.0,-767.223 3001.0,-767.223 3000.1760000000004,-767.0 3000.0,-766.963 2999.0,-766.794 2985.0,-766.794 2984.175,-766.0 2984.175,-752.0 2984.0,-751.6500000000001 2983.3500000000004,-751.0 2983.0,-750.8249999999999 2969.0,-750.8249999999999 2968.207,-750.0 2968.207,-656.0 2969.0,-655.2059999999999 2983.0,-655.2059999999999 2983.412,-655.0 2984.0,-654.412 2984.206,-654.0 2984.206,-640.0 2985.0,-639.207 2999.0,-639.207 3000.0,-639.206 3015.0,-639.206 3015.793,-640.0 3015.793,-714.0 3016.0,-714.413 3016.587,-715.0 3017.0,-715.207 4014.9999999999995,-715.207 4015.4129999999996,-715.0 4016.0,-714.413 4016.2069999999994,-714.0 4016.2069999999994,-316.0 4016.0,-315.587 4015.4129999999996,-315.0 4014.9999999999995,-314.793 3017.0,-314.793 3016.587,-315.0 3016.0,-315.587 3015.793,-316.0 3015.793,-350.0 3015.0,-350.813 3001.0,-350.813 3000.626,-351.0 3000.0,-351.626 2999.813,-352.0 2999.813,-366.0 2999.0,-366.937 2985.0,-366.937 2984.873,-367.0 2984.0,-367.873 2983.937,-368.0 2983.937,-382.0 2983.0,-382.85999999999996 2969.0,-382.85999999999996 2968.721,-383.0 2968.0,-383.721 2967.86,-384.0 2967.86,-398.0 2967.0,-398.793 2936.207,-398.793 2936.207,-1392.0 2937.0,-1391.206"/>
</g>
</svg>